<svg xmlns="http://www.w3.org/2000/svg" viewBox="0 0 440 440" width="440" height="440"><rect x="0" y="0" width="440" height="440" rx="0" fill="#bfe8fb"></rect><circle cx="372" cy="66" r="40.3" fill="#fff3b0" opacity="0.6"></circle><circle cx="372" cy="66" r="26" fill="#ffd21c"></circle><circle cx="363.7" cy="57.7" r="6" fill="#ffffff" opacity="0.7"></circle><g transform="translate(70 62) scale(1 1)"><ellipse cx="0" cy="10" rx="42" ry="14" fill="#ffffff"></ellipse><circle cx="-14" cy="2" r="15" fill="#ffffff"></circle><circle cx="10" cy="-4" r="19" fill="#ffffff"></circle><circle cx="28" cy="6" r="12" fill="#ffffff"></circle></g><g transform="translate(250 44) scale(0.8 0.8)"><ellipse cx="0" cy="10" rx="42" ry="14" fill="#ffffff"></ellipse><circle cx="-14" cy="2" r="15" fill="#ffffff"></circle><circle cx="10" cy="-4" r="19" fill="#ffffff"></circle><circle cx="28" cy="6" r="12" fill="#ffffff"></circle></g><path d="M0 292 Q 90 262 180 288 Q 280 314 360 282 Q 410 270 440 284 L440 440 L0 440 Z" fill="#b5e08f"></path><path d="M0 342 Q 220 322 440 346 L440 440 L0 440 Z" fill="#8fd06a"></path><ellipse cx="290" cy="336" rx="180" ry="30" fill="#5fbfe9"></ellipse><ellipse cx="236" cy="330" rx="63" ry="5.4" fill="#8fd4f2"></ellipse><ellipse cx="353" cy="343.5" rx="45" ry="4.2" fill="#8fd4f2"></ellipse><path d="M0 398 Q 220 384 440 400 L440 440 L0 440 Z" fill="#7cc152"></path><path d="M36 408 l3 -10 l3 10 l3 -8 l3 8" stroke="#5fae3c" stroke-width="2.5" fill="none" stroke-linecap="round" stroke-linejoin="round"></path><path d="M396 404 l3 -10 l3 10 l3 -8 l3 8" stroke="#5fae3c" stroke-width="2.5" fill="none" stroke-linecap="round" stroke-linejoin="round"></path><circle cx="120" cy="364" r="3" fill="#ffffff"></circle><circle cx="330" cy="378" r="3" fill="#ffd21c"></circle><g transform="translate(330 410) scale(1 1)"><rect x="-65" y="-26" width="130" height="26" rx="13" fill="#a5703f"></rect><ellipse cx="59" cy="-13" rx="9" ry="13" fill="#c98f4f"></ellipse><circle cx="59" cy="-13" r="5" fill="#a5703f" opacity="0.6"></circle><path d="M-51 -18 H35 M-41 -9 H25" stroke="#8f5f33" stroke-width="2" fill="none" stroke-linecap="round" stroke-linejoin="round"></path></g><g transform="translate(330 384) scale(1.1 1.1)"><ellipse cx="0" cy="0" rx="40" ry="5" fill="#2f6b1a" opacity="0.1"></ellipse><path d="M-26 -12 Q-54 -12 -62 -2 Q-66 4 -58 2 Q-46 -4 -24 -4 Z" fill="#3fb3a3"></path><ellipse cx="-14" cy="-2" rx="5" ry="4" fill="#2f9a8b"></ellipse><ellipse cx="12" cy="-2" rx="5" ry="4" fill="#2f9a8b"></ellipse><ellipse cx="0" cy="-12" rx="28" ry="11" fill="#3fb3a3"></ellipse><ellipse cx="0" cy="-8" rx="20" ry="5" fill="#bfeee6"></ellipse><ellipse cx="30" cy="-18" rx="16" ry="12" fill="#3fb3a3"></ellipse><circle cx="34" cy="-26" r="5.5" fill="#3fb3a3"></circle><circle cx="34" cy="-27" r="3.2" fill="#4a2c14"></circle><circle cx="35" cy="-28.3" r="1.1" fill="#ffffff"></circle><circle cx="40" cy="-18" r="3.2" fill="#ffb9c8" opacity="0.8"></circle><path d="M36 -12 Q42 -10 46 -14" stroke="#4a2c14" stroke-width="1.6" fill="none" stroke-linecap="round" stroke-linejoin="round"></path></g><g transform="translate(150 404) scale(1.5 1.5)"><ellipse cx="0" cy="0" rx="28" ry="5.3" fill="#2f6b1a" opacity="0.2"></ellipse><circle cx="-18" cy="-40" r="10" fill="#fdfaf3"></circle><circle cx="18" cy="-40" r="10" fill="#fdfaf3"></circle><circle cx="-22" cy="-24" r="10" fill="#fdfaf3"></circle><circle cx="22" cy="-24" r="10" fill="#fdfaf3"></circle><circle cx="-14" cy="-10" r="10" fill="#fdfaf3"></circle><circle cx="14" cy="-10" r="10" fill="#fdfaf3"></circle><circle cx="0" cy="-48" r="10" fill="#fdfaf3"></circle><ellipse cx="-11" cy="-4" rx="11" ry="5.5" fill="#6b5a55"></ellipse><ellipse cx="11" cy="-4" rx="11" ry="5.5" fill="#6b5a55"></ellipse><ellipse cx="0" cy="-26" rx="23" ry="25" fill="#fdfaf3"></ellipse><ellipse cx="-12.3" cy="-32.5" rx="6" ry="8" fill="#f1ebdf" transform="rotate(-20 -12.3 -32.5)"></ellipse><circle cx="-9.5" cy="-25" r="5.6" fill="#6b5a55"></circle><ellipse cx="12.3" cy="-32.5" rx="6" ry="8" fill="#f1ebdf" transform="rotate(20 12.3 -32.5)"></ellipse><circle cx="9.5" cy="-25" r="5.6" fill="#6b5a55"></circle><ellipse cx="-24" cy="-68" rx="10" ry="5" fill="#f6d0d8" transform="rotate(-20 -24 -68)"></ellipse><ellipse cx="24" cy="-68" rx="10" ry="5" fill="#f6d0d8" transform="rotate(20 24 -68)"></ellipse><ellipse cx="0" cy="-63" rx="18" ry="20" fill="#f6e7d8"></ellipse><circle cx="-12" cy="-84" r="9" fill="#fdfaf3"></circle><circle cx="0" cy="-88" r="10" fill="#fdfaf3"></circle><circle cx="12" cy="-84" r="9" fill="#fdfaf3"></circle><circle cx="-6" cy="-80" r="7" fill="#fdfaf3"></circle><circle cx="6" cy="-80" r="7" fill="#fdfaf3"></circle><circle cx="-12" cy="-57" r="4.6" fill="#ffb9c8" opacity="0.8"></circle><circle cx="12" cy="-57" r="4.6" fill="#ffb9c8" opacity="0.8"></circle><path d="M-11.1 -65 Q-7.5 -70.5 -3.9 -65" stroke="#4a2c14" stroke-width="2.5" fill="none" stroke-linecap="round" stroke-linejoin="round"></path><path d="M3.9 -65 Q7.5 -70.5 11.1 -65" stroke="#4a2c14" stroke-width="2.5" fill="none" stroke-linecap="round" stroke-linejoin="round"></path><path d="M-5.5 -55 Q0 -46.3 5.5 -55 Z" fill="#c0475a"></path><ellipse cx="0" cy="-58.5" rx="3" ry="2.2" fill="#c98b8b"></ellipse></g><g transform="translate(150 386) rotate(0) scale(0.8)"><path d="M0 0 Q-34 -30 0 -70 Q34 -30 0 0 Z" fill="#58cc02"></path><path d="M0 -4 V-66 M0 -24 l-10 -10 M0 -40 l10 -10 M0 -52 l-8 -8" stroke="#3fae14" stroke-width="2" fill="none" stroke-linecap="round" stroke-linejoin="round"></path></g><g transform="translate(120 300) scale(0.7 0.7)"><path d="M0 -9 L2.2 -2.2 L9 0 L2.2 2.2 L0 9 L-2.2 2.2 L-9 0 L-2.2 -2.2 Z" fill="#ffd21c"></path></g><g transform="translate(190 290) scale(0.6 0.6)"><path d="M0 -9 L2.2 -2.2 L9 0 L2.2 2.2 L0 9 L-2.2 2.2 L-9 0 L-2.2 -2.2 Z" fill="#ffd21c"></path></g></svg>
