<svg xmlns="http://www.w3.org/2000/svg" viewBox="20 0 400 400" width="240" height="240"><rect x="0" y="0" width="440" height="400" rx="0" fill="#bfe8fb"></rect><circle cx="370" cy="64" r="40.3" fill="#fff3b0" opacity="0.6"></circle><circle cx="370" cy="64" r="26" fill="#ffd21c"></circle><circle cx="361.7" cy="55.7" r="6" fill="#ffffff" opacity="0.7"></circle><g transform="translate(80 64) scale(0.9 0.9)"><ellipse cx="0" cy="10" rx="42" ry="14" fill="#ffffff"></ellipse><circle cx="-14" cy="2" r="15" fill="#ffffff"></circle><circle cx="10" cy="-4" r="19" fill="#ffffff"></circle><circle cx="28" cy="6" r="12" fill="#ffffff"></circle></g><g transform="translate(240 40) scale(0.6 0.6)"><ellipse cx="0" cy="10" rx="42" ry="14" fill="#ffffff"></ellipse><circle cx="-14" cy="2" r="15" fill="#ffffff"></circle><circle cx="10" cy="-4" r="19" fill="#ffffff"></circle><circle cx="28" cy="6" r="12" fill="#ffffff"></circle></g><path d="M0 250 Q 90 220 180 246 Q 280 272 360 240 Q 410 228 440 242 L440 400 L0 400 Z" fill="#b5e08f"></path><path d="M0 302 Q 220 282 440 306 L440 400 L0 400 Z" fill="#8fd06a"></path><path d="M0 362 Q 220 348 440 364 L440 400 L0 400 Z" fill="#7cc152"></path><path d="M36 372 l3 -10 l3 10 l3 -8 l3 8" stroke="#5fae3c" stroke-width="2.5" fill="none" stroke-linecap="round" stroke-linejoin="round"></path><path d="M396 368 l3 -10 l3 10 l3 -8 l3 8" stroke="#5fae3c" stroke-width="2.5" fill="none" stroke-linecap="round" stroke-linejoin="round"></path><circle cx="120" cy="324" r="3" fill="#ffffff"></circle><circle cx="330" cy="338" r="3" fill="#ffd21c"></circle><rect x="0" y="270" width="440" height="6" rx="3" fill="#fff4e0"></rect><rect x="0" y="286" width="440" height="6" rx="3" fill="#fff4e0"></rect><path d="M8 300 V260 l8 -8 l8 8 V300 Z" fill="#fff4e0"></path><path d="M42 300 V260 l8 -8 l8 8 V300 Z" fill="#fff4e0"></path><path d="M76 300 V260 l8 -8 l8 8 V300 Z" fill="#fff4e0"></path><path d="M110 300 V260 l8 -8 l8 8 V300 Z" fill="#fff4e0"></path><path d="M144 300 V260 l8 -8 l8 8 V300 Z" fill="#fff4e0"></path><path d="M178 300 V260 l8 -8 l8 8 V300 Z" fill="#fff4e0"></path><path d="M212 300 V260 l8 -8 l8 8 V300 Z" fill="#fff4e0"></path><path d="M246 300 V260 l8 -8 l8 8 V300 Z" fill="#fff4e0"></path><path d="M280 300 V260 l8 -8 l8 8 V300 Z" fill="#fff4e0"></path><path d="M314 300 V260 l8 -8 l8 8 V300 Z" fill="#fff4e0"></path><path d="M348 300 V260 l8 -8 l8 8 V300 Z" fill="#fff4e0"></path><path d="M382 300 V260 l8 -8 l8 8 V300 Z" fill="#fff4e0"></path><path d="M416 300 V260 l8 -8 l8 8 V300 Z" fill="#fff4e0"></path><g transform="translate(220 352) rotate(0) scale(1)"><ellipse cx="0" cy="0" rx="70" ry="12" fill="#8f5f33"></ellipse><path d="M-60 0 Q-30 -22 0 -22 Q30 -22 60 0 Z" fill="#a5703f"></path><circle cx="-20" cy="-8" r="2.4" fill="#6b4a2e"></circle><circle cx="18" cy="-12" r="2" fill="#6b4a2e"></circle><circle cx="4" cy="-4" r="2" fill="#6b4a2e"></circle></g><g transform="translate(220 338) rotate(0) scale(1)"><path d="M0 0 Q-8 -60 0 -130" stroke="#4caf32" stroke-width="7" fill="none" stroke-linecap="round" stroke-linejoin="round"></path><path d="M-2 -50 Q-40 -64 -52 -40 Q-26 -30 -2 -50 Z" fill="#58cc02"></path><path d="M-4 -49 Q-26 -48 -44 -42" stroke="#3fae14" stroke-width="2" fill="none" stroke-linecap="round" stroke-linejoin="round"></path><path d="M0 -86 Q38 -102 50 -78 Q24 -68 0 -86 Z" fill="#6fd81a"></path><path d="M2 -85 Q24 -86 42 -80" stroke="#3fae14" stroke-width="2" fill="none" stroke-linecap="round" stroke-linejoin="round"></path></g><g transform="translate(220 176) rotate(0) scale(1)"><ellipse cx="0" cy="-34" rx="18" ry="26" fill="#ff6fa0" transform="rotate(0 0 -34)"></ellipse><ellipse cx="24" cy="-24" rx="18" ry="26" fill="#ff8fb0" transform="rotate(45 24 -24)"></ellipse><ellipse cx="34" cy="0" rx="18" ry="26" fill="#ff6fa0" transform="rotate(90 34 0)"></ellipse><ellipse cx="24" cy="24" rx="18" ry="26" fill="#ff8fb0" transform="rotate(135 24 24)"></ellipse><ellipse cx="0" cy="34" rx="18" ry="26" fill="#ff6fa0" transform="rotate(180 0 34)"></ellipse><ellipse cx="-24" cy="24" rx="18" ry="26" fill="#ff8fb0" transform="rotate(225 -24 24)"></ellipse><ellipse cx="-34" cy="0" rx="18" ry="26" fill="#ff6fa0" transform="rotate(270 -34 0)"></ellipse><ellipse cx="-24" cy="-24" rx="18" ry="26" fill="#ff8fb0" transform="rotate(315 -24 -24)"></ellipse><circle cx="0" cy="0" r="30" fill="#ffd21c"></circle><circle cx="0" cy="0" r="30" fill="none" stroke="#f0a800" stroke-width="3"></circle><circle cx="-16" cy="4" r="4.4" fill="#ffb9c8" opacity="0.8"></circle><circle cx="16" cy="4" r="4.4" fill="#ffb9c8" opacity="0.8"></circle><path d="M-12.6 -3 Q-9 -8.5 -5.4 -3" stroke="#4a2c14" stroke-width="2.5" fill="none" stroke-linecap="round" stroke-linejoin="round"></path><path d="M5.4 -3 Q9 -8.5 12.6 -3" stroke="#4a2c14" stroke-width="2.5" fill="none" stroke-linecap="round" stroke-linejoin="round"></path><path d="M-5.5 5 Q0 13.7 5.5 5 Z" fill="#c0475a"></path></g><g transform="translate(92 120) rotate(0) scale(1)"><g transform="rotate(28 0 0)"><rect x="-26" y="-34" width="52" height="36" rx="10" fill="#4db3f2"></rect><rect x="-26" y="-34" width="52" height="8" rx="4" fill="#8fd4f2"></rect><path d="M-22 -30 Q-44 -26 -40 -4" stroke="#3a9ad8" stroke-width="5" fill="none" stroke-linecap="round" stroke-linejoin="round"></path><path d="M22 -18 L54 -40 L58 -34 L28 -8 Z" fill="#3a9ad8"></path><ellipse cx="58" cy="-40" rx="7" ry="4" fill="#3a9ad8" transform="rotate(-35 58 -40)"></ellipse><circle cx="-14" cy="-24" r="3" fill="#ffffff" opacity="0.8"></circle></g></g><g transform="translate(330 150) rotate(0) scale(1)"><g transform="scale(1.3)"><ellipse cx="-4" cy="-14" rx="8" ry="12" fill="#e8f6ff" transform="rotate(-25 -4 -14)" opacity="1"></ellipse><ellipse cx="8" cy="-14" rx="8" ry="12" fill="#e8f6ff" transform="rotate(25 8 -14)" opacity="1"></ellipse><ellipse cx="4" cy="2" rx="16" ry="12" fill="#ffd21c"></ellipse><ellipse cx="1" cy="2" rx="3.2" ry="11.5" fill="#3d3a4a"></ellipse><ellipse cx="10" cy="2" rx="3" ry="10" fill="#3d3a4a"></ellipse><path d="M19 2 L25 4 L19 6 Z" fill="#3d3a4a"></path><circle cx="-12" cy="-2" r="11" fill="#ffd21c"></circle><path d="M-16 -12 q-4 -8 -8 -8 M-10 -12 q0 -8 4 -10" stroke="#3d3a4a" stroke-width="1.6" fill="none" stroke-linecap="round" stroke-linejoin="round"></path><circle cx="-24" cy="-20" r="2" fill="#3d3a4a"></circle><circle cx="-6" cy="-22" r="2" fill="#3d3a4a"></circle><circle cx="-19" cy="1" r="2.8" fill="#ffb9c8" opacity="0.8"></circle><circle cx="-5" cy="1" r="2.8" fill="#ffb9c8" opacity="0.8"></circle><circle cx="-16" cy="-4" r="2.3" fill="#4a2c14"></circle><circle cx="-8" cy="-4" r="2.3" fill="#4a2c14"></circle><circle cx="-15.2" cy="-4.9" r="0.8" fill="#ffffff"></circle><circle cx="-7.2" cy="-4.9" r="0.8" fill="#ffffff"></circle><path d="M-17.5 2 Q-12 10.7 -6.5 2 Z" fill="#c0475a"></path></g></g><g transform="translate(110 366) rotate(0) scale(1)"><g transform="translate(0 0) scale(1.6 1.6)"><path d="M0 0 V-22" stroke="#4caf32" stroke-width="3" fill="none" stroke-linecap="round" stroke-linejoin="round"></path><ellipse cx="6" cy="-8" rx="6" ry="3" fill="#58cc02" transform="rotate(-30 6 -8)"></ellipse><circle cx="-5" cy="-26" r="5" fill="#9b7fd8"></circle><circle cx="5" cy="-26" r="5" fill="#9b7fd8"></circle><circle cx="0" cy="-31" r="5" fill="#9b7fd8"></circle><circle cx="0" cy="-21" r="5" fill="#9b7fd8"></circle><circle cx="0" cy="-26" r="3.6" fill="#ffd21c"></circle></g></g><g transform="translate(340 370) rotate(0) scale(1)"><g transform="translate(0 0) scale(1.5 1.5)"><path d="M0 0 V-22" stroke="#4caf32" stroke-width="3" fill="none" stroke-linecap="round" stroke-linejoin="round"></path><ellipse cx="6" cy="-8" rx="6" ry="3" fill="#58cc02" transform="rotate(-30 6 -8)"></ellipse><circle cx="-5" cy="-26" r="5" fill="#ffd21c"></circle><circle cx="5" cy="-26" r="5" fill="#ffd21c"></circle><circle cx="0" cy="-31" r="5" fill="#ffd21c"></circle><circle cx="0" cy="-21" r="5" fill="#ffd21c"></circle><circle cx="0" cy="-26" r="3.6" fill="#ff9d3d"></circle></g></g></svg>
