<svg xmlns="http://www.w3.org/2000/svg" viewBox="20 0 400 400" width="240" height="240"><rect x="0" y="0" width="440" height="400" rx="0" fill="#bfe8fb"></rect><g transform="translate(70 40) scale(0.7 0.7)"><ellipse cx="0" cy="10" rx="42" ry="14" fill="#ffffff"></ellipse><circle cx="-14" cy="2" r="15" fill="#ffffff"></circle><circle cx="10" cy="-4" r="19" fill="#ffffff"></circle><circle cx="28" cy="6" r="12" fill="#ffffff"></circle></g><g transform="translate(250 30) scale(0.5 0.5)"><ellipse cx="0" cy="10" rx="42" ry="14" fill="#ffffff"></ellipse><circle cx="-14" cy="2" r="15" fill="#ffffff"></circle><circle cx="10" cy="-4" r="19" fill="#ffffff"></circle><circle cx="28" cy="6" r="12" fill="#ffffff"></circle></g><rect x="0" y="58" width="440" height="88" rx="0" fill="#4f6b8a"></rect><circle cx="12" cy="76" r="7" fill="#ff5c5c"></circle><circle cx="32" cy="76" r="7" fill="#ffd21c"></circle><circle cx="52" cy="76" r="7" fill="#ffffff"></circle><circle cx="72" cy="76" r="7" fill="#4db3f2"></circle><circle cx="92" cy="76" r="7" fill="#ff9d3d"></circle><circle cx="112" cy="76" r="7" fill="#ff5c5c"></circle><circle cx="132" cy="76" r="7" fill="#ffd21c"></circle><circle cx="152" cy="76" r="7" fill="#ffffff"></circle><circle cx="172" cy="76" r="7" fill="#4db3f2"></circle><circle cx="192" cy="76" r="7" fill="#ff9d3d"></circle><circle cx="212" cy="76" r="7" fill="#ff5c5c"></circle><circle cx="232" cy="76" r="7" fill="#ffd21c"></circle><circle cx="252" cy="76" r="7" fill="#ffffff"></circle><circle cx="272" cy="76" r="7" fill="#4db3f2"></circle><circle cx="292" cy="76" r="7" fill="#ff9d3d"></circle><circle cx="312" cy="76" r="7" fill="#ff5c5c"></circle><circle cx="332" cy="76" r="7" fill="#ffd21c"></circle><circle cx="352" cy="76" r="7" fill="#ffffff"></circle><circle cx="372" cy="76" r="7" fill="#4db3f2"></circle><circle cx="392" cy="76" r="7" fill="#ff9d3d"></circle><circle cx="412" cy="76" r="7" fill="#ff5c5c"></circle><circle cx="432" cy="76" r="7" fill="#ffd21c"></circle><circle cx="22" cy="100" r="7" fill="#ffd21c"></circle><circle cx="42" cy="100" r="7" fill="#ffffff"></circle><circle cx="62" cy="100" r="7" fill="#4db3f2"></circle><circle cx="82" cy="100" r="7" fill="#ff9d3d"></circle><circle cx="102" cy="100" r="7" fill="#ff5c5c"></circle><circle cx="122" cy="100" r="7" fill="#ffd21c"></circle><circle cx="142" cy="100" r="7" fill="#ffffff"></circle><circle cx="162" cy="100" r="7" fill="#4db3f2"></circle><circle cx="182" cy="100" r="7" fill="#ff9d3d"></circle><circle cx="202" cy="100" r="7" fill="#ff5c5c"></circle><circle cx="222" cy="100" r="7" fill="#ffd21c"></circle><circle cx="242" cy="100" r="7" fill="#ffffff"></circle><circle cx="262" cy="100" r="7" fill="#4db3f2"></circle><circle cx="282" cy="100" r="7" fill="#ff9d3d"></circle><circle cx="302" cy="100" r="7" fill="#ff5c5c"></circle><circle cx="322" cy="100" r="7" fill="#ffd21c"></circle><circle cx="342" cy="100" r="7" fill="#ffffff"></circle><circle cx="362" cy="100" r="7" fill="#4db3f2"></circle><circle cx="382" cy="100" r="7" fill="#ff9d3d"></circle><circle cx="402" cy="100" r="7" fill="#ff5c5c"></circle><circle cx="422" cy="100" r="7" fill="#ffd21c"></circle><circle cx="442" cy="100" r="7" fill="#ffffff"></circle><circle cx="12" cy="124" r="7" fill="#ffffff"></circle><circle cx="32" cy="124" r="7" fill="#4db3f2"></circle><circle cx="52" cy="124" r="7" fill="#ff9d3d"></circle><circle cx="72" cy="124" r="7" fill="#ff5c5c"></circle><circle cx="92" cy="124" r="7" fill="#ffd21c"></circle><circle cx="112" cy="124" r="7" fill="#ffffff"></circle><circle cx="132" cy="124" r="7" fill="#4db3f2"></circle><circle cx="152" cy="124" r="7" fill="#ff9d3d"></circle><circle cx="172" cy="124" r="7" fill="#ff5c5c"></circle><circle cx="192" cy="124" r="7" fill="#ffd21c"></circle><circle cx="212" cy="124" r="7" fill="#ffffff"></circle><circle cx="232" cy="124" r="7" fill="#4db3f2"></circle><circle cx="252" cy="124" r="7" fill="#ff9d3d"></circle><circle cx="272" cy="124" r="7" fill="#ff5c5c"></circle><circle cx="292" cy="124" r="7" fill="#ffd21c"></circle><circle cx="312" cy="124" r="7" fill="#ffffff"></circle><circle cx="332" cy="124" r="7" fill="#4db3f2"></circle><circle cx="352" cy="124" r="7" fill="#ff9d3d"></circle><circle cx="372" cy="124" r="7" fill="#ff5c5c"></circle><circle cx="392" cy="124" r="7" fill="#ffd21c"></circle><circle cx="412" cy="124" r="7" fill="#ffffff"></circle><circle cx="432" cy="124" r="7" fill="#4db3f2"></circle><rect x="0" y="146" width="440" height="254" rx="0" fill="#6fbf4a"></rect><rect x="0" y="146" width="40" height="254" rx="0" fill="#7cc95c"></rect><rect x="80" y="146" width="40" height="254" rx="0" fill="#7cc95c"></rect><rect x="160" y="146" width="40" height="254" rx="0" fill="#7cc95c"></rect><rect x="240" y="146" width="40" height="254" rx="0" fill="#7cc95c"></rect><rect x="320" y="146" width="40" height="254" rx="0" fill="#7cc95c"></rect><rect x="400" y="146" width="40" height="254" rx="0" fill="#7cc95c"></rect><path d="M0 330 Q220 300 440 330" stroke="#ffffff" stroke-width="3" fill="none" stroke-linecap="round" stroke-linejoin="round" opacity="0.7"></path><ellipse cx="140" cy="352" rx="24" ry="5" fill="#4f9a3a" opacity="0.4"></ellipse><rect x="116" y="12" width="208" height="34" rx="17" fill="#2d3642"></rect><g transform="translate(136 29)"><circle cx="0" cy="0" r="10" fill="#d9dee6"></circle></g><g transform="translate(160 29)"><circle cx="0" cy="0" r="10" fill="#d9dee6"></circle></g><g transform="translate(184 29)"><circle cx="0" cy="0" r="10" fill="#d9dee6"></circle></g><g transform="translate(208 29)"><circle cx="0" cy="0" r="10" fill="#d9dee6"></circle></g><g transform="translate(232 29)"><circle cx="0" cy="0" r="10" fill="#d9dee6"></circle></g><g transform="translate(256 29)"><circle cx="0" cy="0" r="10" fill="#d9dee6"></circle></g><g transform="translate(280 29)"><circle cx="0" cy="0" r="10" fill="#d9dee6"></circle></g><g transform="translate(304 29)"><circle cx="0" cy="0" r="10" fill="#d9dee6"></circle></g><g transform="translate(350 304) rotate(0) scale(1)"><rect x="-70" y="-120" width="140" height="120" rx="0" fill="#ffffff" opacity="0.2"></rect><path d="M-70 -120 L-50 0" stroke="#ffffff" stroke-width="1.4" fill="none" stroke-linecap="round" stroke-linejoin="round" opacity="0.8"></path><path d="M-56 -120 L-38.800000000000004 0" stroke="#ffffff" stroke-width="1.4" fill="none" stroke-linecap="round" stroke-linejoin="round" opacity="0.8"></path><path d="M-42 -120 L-27.6 0" stroke="#ffffff" stroke-width="1.4" fill="none" stroke-linecap="round" stroke-linejoin="round" opacity="0.8"></path><path d="M-28 -120 L-16.400000000000002 0" stroke="#ffffff" stroke-width="1.4" fill="none" stroke-linecap="round" stroke-linejoin="round" opacity="0.8"></path><path d="M-14 -120 L-5.200000000000001 0" stroke="#ffffff" stroke-width="1.4" fill="none" stroke-linecap="round" stroke-linejoin="round" opacity="0.8"></path><path d="M0 -120 L6 0" stroke="#ffffff" stroke-width="1.4" fill="none" stroke-linecap="round" stroke-linejoin="round" opacity="0.8"></path><path d="M14 -120 L17.200000000000003 0" stroke="#ffffff" stroke-width="1.4" fill="none" stroke-linecap="round" stroke-linejoin="round" opacity="0.8"></path><path d="M28 -120 L28.400000000000002 0" stroke="#ffffff" stroke-width="1.4" fill="none" stroke-linecap="round" stroke-linejoin="round" opacity="0.8"></path><path d="M42 -120 L39.6 0" stroke="#ffffff" stroke-width="1.4" fill="none" stroke-linecap="round" stroke-linejoin="round" opacity="0.8"></path><path d="M56 -120 L50.800000000000004 0" stroke="#ffffff" stroke-width="1.4" fill="none" stroke-linecap="round" stroke-linejoin="round" opacity="0.8"></path><path d="M70 -120 L62 0" stroke="#ffffff" stroke-width="1.4" fill="none" stroke-linecap="round" stroke-linejoin="round" opacity="0.8"></path><path d="M-70 -110 H70" stroke="#ffffff" stroke-width="1.4" fill="none" stroke-linecap="round" stroke-linejoin="round" opacity="0.8"></path><path d="M-70 -96 H70" stroke="#ffffff" stroke-width="1.4" fill="none" stroke-linecap="round" stroke-linejoin="round" opacity="0.8"></path><path d="M-70 -82 H70" stroke="#ffffff" stroke-width="1.4" fill="none" stroke-linecap="round" stroke-linejoin="round" opacity="0.8"></path><path d="M-70 -68 H70" stroke="#ffffff" stroke-width="1.4" fill="none" stroke-linecap="round" stroke-linejoin="round" opacity="0.8"></path><path d="M-70 -54 H70" stroke="#ffffff" stroke-width="1.4" fill="none" stroke-linecap="round" stroke-linejoin="round" opacity="0.8"></path><path d="M-70 -40 H70" stroke="#ffffff" stroke-width="1.4" fill="none" stroke-linecap="round" stroke-linejoin="round" opacity="0.8"></path><path d="M-70 -26 H70" stroke="#ffffff" stroke-width="1.4" fill="none" stroke-linecap="round" stroke-linejoin="round" opacity="0.8"></path><path d="M-70 -12 H70" stroke="#ffffff" stroke-width="1.4" fill="none" stroke-linecap="round" stroke-linejoin="round" opacity="0.8"></path><rect x="-76" y="-126" width="152" height="8" rx="4" fill="#ffffff"></rect><rect x="-76" y="-126" width="8" height="126" rx="4" fill="#ffffff"></rect><rect x="68" y="-126" width="8" height="126" rx="4" fill="#ffffff"></rect></g><g transform="translate(350 300) rotate(0) scale(1)"><g transform="scale(0.85)"><ellipse cx="0" cy="0" rx="28" ry="5.3" fill="#2f6b1a" opacity="0.2"></ellipse><circle cx="18" cy="-14" r="7" fill="#b5875a"></circle><ellipse cx="-24.1" cy="-44.2" rx="6" ry="10" fill="#a57a4f" transform="rotate(115 -24.1 -44.2)"></ellipse><circle cx="-33.1" cy="-48.5" r="5.6" fill="#b5875a"></circle><ellipse cx="24.1" cy="-44.2" rx="6" ry="10" fill="#a57a4f" transform="rotate(-115 24.1 -44.2)"></ellipse><circle cx="33.1" cy="-48.5" r="5.6" fill="#b5875a"></circle><ellipse cx="-11" cy="-4" rx="11" ry="5.5" fill="#8f6a42"></ellipse><ellipse cx="11" cy="-4" rx="11" ry="5.5" fill="#8f6a42"></ellipse><ellipse cx="0" cy="-26" rx="24" ry="26" fill="#b5875a"></ellipse><ellipse cx="0" cy="-21" rx="13.7" ry="15.6" fill="#e0b98a"></ellipse><circle cx="-18" cy="-86" r="9" fill="#b5875a"></circle><circle cx="18" cy="-86" r="9" fill="#b5875a"></circle><circle cx="-18" cy="-86" r="4.5" fill="#e0b98a"></circle><circle cx="18" cy="-86" r="4.5" fill="#e0b98a"></circle><circle cx="0" cy="-66" r="26" fill="#b5875a"></circle><ellipse cx="0" cy="-56" rx="12" ry="9" fill="#e0b98a"></ellipse><circle cx="-16" cy="-61" r="4.6" fill="#ffb9c8" opacity="0.8"></circle><circle cx="16" cy="-61" r="4.6" fill="#ffb9c8" opacity="0.8"></circle><circle cx="-9.5" cy="-71" r="3.9" fill="#4a2c14"></circle><circle cx="9.5" cy="-71" r="3.9" fill="#4a2c14"></circle><circle cx="-8.2" cy="-72.6" r="1.3" fill="#ffffff"></circle><circle cx="10.8" cy="-72.6" r="1.3" fill="#ffffff"></circle><ellipse cx="0" cy="-49.5" rx="2.8" ry="3.4" fill="#c0475a"></ellipse><ellipse cx="0" cy="-61" rx="4.4" ry="3.2" fill="#4a2c14"></ellipse><circle cx="-10" cy="-82" r="2.6" fill="#ffffff" opacity="0.8"></circle></g></g><g transform="translate(306 252) rotate(0) scale(1)"><circle cx="0" cy="0" r="15" fill="#ffffff"></circle><path d="M0 -5.25 L4.95 -1.5 L3 4.2 L-3 4.2 L-4.95 -1.5 Z" fill="#2d3642"></path><path d="M0 -15 L2.6999999999999997 -10.799999999999999 L-2.6999999999999997 -10.799999999999999 Z" fill="#2d3642"></path><path d="M14.25 -4.5 L10.5 0.75 L9.9 -6.75 Z" fill="#2d3642"></path><path d="M-14.25 -4.5 L-10.5 0.75 L-9.9 -6.75 Z" fill="#2d3642"></path><path d="M0 -5.25 V-10.799999999999999 M4.95 -1.5 L10.5 -3 M-4.95 -1.5 L-10.5 -3 M3 4.2 L6 10.5 M-3 4.2 L-6 10.5" stroke="#2d3642" stroke-width="1.4" fill="none" stroke-linecap="round" stroke-linejoin="round"></path><circle cx="-6.7" cy="-7.5" r="2.3" fill="#ffffff" opacity="0.8"></circle></g><g transform="translate(394 264) rotate(0) scale(1)"><circle cx="0" cy="0" r="15" fill="#ffffff"></circle><path d="M0 -5.25 L4.95 -1.5 L3 4.2 L-3 4.2 L-4.95 -1.5 Z" fill="#2d3642"></path><path d="M0 -15 L2.6999999999999997 -10.799999999999999 L-2.6999999999999997 -10.799999999999999 Z" fill="#2d3642"></path><path d="M14.25 -4.5 L10.5 0.75 L9.9 -6.75 Z" fill="#2d3642"></path><path d="M-14.25 -4.5 L-10.5 0.75 L-9.9 -6.75 Z" fill="#2d3642"></path><path d="M0 -5.25 V-10.799999999999999 M4.95 -1.5 L10.5 -3 M-4.95 -1.5 L-10.5 -3 M3 4.2 L6 10.5 M-3 4.2 L-6 10.5" stroke="#2d3642" stroke-width="1.4" fill="none" stroke-linecap="round" stroke-linejoin="round"></path><circle cx="-6.7" cy="-7.5" r="2.3" fill="#ffffff" opacity="0.8"></circle></g><g transform="translate(316 286) rotate(0) scale(1)"><circle cx="0" cy="0" r="15" fill="#ffffff"></circle><path d="M0 -5.25 L4.95 -1.5 L3 4.2 L-3 4.2 L-4.95 -1.5 Z" fill="#2d3642"></path><path d="M0 -15 L2.6999999999999997 -10.799999999999999 L-2.6999999999999997 -10.799999999999999 Z" fill="#2d3642"></path><path d="M14.25 -4.5 L10.5 0.75 L9.9 -6.75 Z" fill="#2d3642"></path><path d="M-14.25 -4.5 L-10.5 0.75 L-9.9 -6.75 Z" fill="#2d3642"></path><path d="M0 -5.25 V-10.799999999999999 M4.95 -1.5 L10.5 -3 M-4.95 -1.5 L-10.5 -3 M3 4.2 L6 10.5 M-3 4.2 L-6 10.5" stroke="#2d3642" stroke-width="1.4" fill="none" stroke-linecap="round" stroke-linejoin="round"></path><circle cx="-6.7" cy="-7.5" r="2.3" fill="#ffffff" opacity="0.8"></circle></g><g transform="translate(398 228) rotate(0) scale(1)"><circle cx="0" cy="0" r="15" fill="#ffffff"></circle><path d="M0 -5.25 L4.95 -1.5 L3 4.2 L-3 4.2 L-4.95 -1.5 Z" fill="#2d3642"></path><path d="M0 -15 L2.6999999999999997 -10.799999999999999 L-2.6999999999999997 -10.799999999999999 Z" fill="#2d3642"></path><path d="M14.25 -4.5 L10.5 0.75 L9.9 -6.75 Z" fill="#2d3642"></path><path d="M-14.25 -4.5 L-10.5 0.75 L-9.9 -6.75 Z" fill="#2d3642"></path><path d="M0 -5.25 V-10.799999999999999 M4.95 -1.5 L10.5 -3 M-4.95 -1.5 L-10.5 -3 M3 4.2 L6 10.5 M-3 4.2 L-6 10.5" stroke="#2d3642" stroke-width="1.4" fill="none" stroke-linecap="round" stroke-linejoin="round"></path><circle cx="-6.7" cy="-7.5" r="2.3" fill="#ffffff" opacity="0.8"></circle></g><g transform="translate(302 218) rotate(0) scale(1)"><circle cx="0" cy="0" r="15" fill="#ffffff"></circle><path d="M0 -5.25 L4.95 -1.5 L3 4.2 L-3 4.2 L-4.95 -1.5 Z" fill="#2d3642"></path><path d="M0 -15 L2.6999999999999997 -10.799999999999999 L-2.6999999999999997 -10.799999999999999 Z" fill="#2d3642"></path><path d="M14.25 -4.5 L10.5 0.75 L9.9 -6.75 Z" fill="#2d3642"></path><path d="M-14.25 -4.5 L-10.5 0.75 L-9.9 -6.75 Z" fill="#2d3642"></path><path d="M0 -5.25 V-10.799999999999999 M4.95 -1.5 L10.5 -3 M-4.95 -1.5 L-10.5 -3 M3 4.2 L6 10.5 M-3 4.2 L-6 10.5" stroke="#2d3642" stroke-width="1.4" fill="none" stroke-linecap="round" stroke-linejoin="round"></path><circle cx="-6.7" cy="-7.5" r="2.3" fill="#ffffff" opacity="0.8"></circle></g><g transform="translate(384 290) rotate(0) scale(1)"><circle cx="0" cy="0" r="15" fill="#ffffff"></circle><path d="M0 -5.25 L4.95 -1.5 L3 4.2 L-3 4.2 L-4.95 -1.5 Z" fill="#2d3642"></path><path d="M0 -15 L2.6999999999999997 -10.799999999999999 L-2.6999999999999997 -10.799999999999999 Z" fill="#2d3642"></path><path d="M14.25 -4.5 L10.5 0.75 L9.9 -6.75 Z" fill="#2d3642"></path><path d="M-14.25 -4.5 L-10.5 0.75 L-9.9 -6.75 Z" fill="#2d3642"></path><path d="M0 -5.25 V-10.799999999999999 M4.95 -1.5 L10.5 -3 M-4.95 -1.5 L-10.5 -3 M3 4.2 L6 10.5 M-3 4.2 L-6 10.5" stroke="#2d3642" stroke-width="1.4" fill="none" stroke-linecap="round" stroke-linejoin="round"></path><circle cx="-6.7" cy="-7.5" r="2.3" fill="#ffffff" opacity="0.8"></circle></g><g transform="translate(328 196) rotate(0) scale(1)"><circle cx="0" cy="0" r="15" fill="#ffffff"></circle><path d="M0 -5.25 L4.95 -1.5 L3 4.2 L-3 4.2 L-4.95 -1.5 Z" fill="#2d3642"></path><path d="M0 -15 L2.6999999999999997 -10.799999999999999 L-2.6999999999999997 -10.799999999999999 Z" fill="#2d3642"></path><path d="M14.25 -4.5 L10.5 0.75 L9.9 -6.75 Z" fill="#2d3642"></path><path d="M-14.25 -4.5 L-10.5 0.75 L-9.9 -6.75 Z" fill="#2d3642"></path><path d="M0 -5.25 V-10.799999999999999 M4.95 -1.5 L10.5 -3 M-4.95 -1.5 L-10.5 -3 M3 4.2 L6 10.5 M-3 4.2 L-6 10.5" stroke="#2d3642" stroke-width="1.4" fill="none" stroke-linecap="round" stroke-linejoin="round"></path><circle cx="-6.7" cy="-7.5" r="2.3" fill="#ffffff" opacity="0.8"></circle></g><g transform="translate(372 198) rotate(0) scale(1)"><circle cx="0" cy="0" r="15" fill="#ffffff"></circle><path d="M0 -5.25 L4.95 -1.5 L3 4.2 L-3 4.2 L-4.95 -1.5 Z" fill="#2d3642"></path><path d="M0 -15 L2.6999999999999997 -10.799999999999999 L-2.6999999999999997 -10.799999999999999 Z" fill="#2d3642"></path><path d="M14.25 -4.5 L10.5 0.75 L9.9 -6.75 Z" fill="#2d3642"></path><path d="M-14.25 -4.5 L-10.5 0.75 L-9.9 -6.75 Z" fill="#2d3642"></path><path d="M0 -5.25 V-10.799999999999999 M4.95 -1.5 L10.5 -3 M-4.95 -1.5 L-10.5 -3 M3 4.2 L6 10.5 M-3 4.2 L-6 10.5" stroke="#2d3642" stroke-width="1.4" fill="none" stroke-linecap="round" stroke-linejoin="round"></path><circle cx="-6.7" cy="-7.5" r="2.3" fill="#ffffff" opacity="0.8"></circle></g><g transform="translate(92 366) rotate(0) scale(1)"><g transform="scale(1.1)"><ellipse cx="0" cy="0" rx="24" ry="4.6" fill="#2f6b1a" opacity="0.2"></ellipse><ellipse cx="25.9" cy="-49.1" rx="6" ry="12" fill="#ff5c5c" transform="rotate(-115 25.9 -49.1)"></ellipse><circle cx="36.8" cy="-54.1" r="5" fill="#ffd9b8"></circle><ellipse cx="-8" cy="-3" rx="8" ry="4" fill="#2d3642"></ellipse><ellipse cx="8" cy="-3" rx="8" ry="4" fill="#2d3642"></ellipse><rect x="-15" y="-50" width="30" height="26" rx="8" fill="#ff5c5c"></rect><rect x="-15" y="-28" width="30" height="14" rx="5" fill="#ffffff"></rect><rect x="-12" y="-16" width="9" height="12" rx="3" fill="#ffffff"></rect><rect x="3" y="-16" width="9" height="12" rx="3" fill="#ffffff"></rect><ellipse cx="-24.8" cy="-37.1" rx="6" ry="12" fill="#ff5c5c" transform="rotate(55 -24.8 -37.1)"></ellipse><circle cx="-34.7" cy="-30.2" r="5" fill="#ffd9b8"></circle><rect x="-4" y="-56" width="8" height="8" rx="3" fill="#ffd9b8"></rect><circle cx="0" cy="-76" r="21" fill="#ffd9b8"></circle><path d="M-21 -80 Q-20 -100 0 -100 Q20 -100 21 -80 Q12 -90 0 -88 Q-10 -90 -21 -80 Z" fill="#6b4a2e"></path><circle cx="-12" cy="-68" r="4.6" fill="#ffb9c8" opacity="0.8"></circle><circle cx="12" cy="-68" r="4.6" fill="#ffb9c8" opacity="0.8"></circle><circle cx="-7.5" cy="-76" r="2.9" fill="#4a2c14"></circle><circle cx="7.5" cy="-76" r="2.9" fill="#4a2c14"></circle><circle cx="-6.5" cy="-77.2" r="1" fill="#ffffff"></circle><circle cx="8.5" cy="-77.2" r="1" fill="#ffffff"></circle><path d="M-5.5 -67 Q0 -58.3 5.5 -67 Z" fill="#c0475a"></path></g></g><g transform="translate(136 29) rotate(0) scale(1)"><circle cx="0" cy="0" r="10" fill="#ffd21c"></circle><g transform="translate(0 0) scale(0.8 0.8)"><path d="M0 -9 L2.2 -2.2 L9 0 L2.2 2.2 L0 9 L-2.2 2.2 L-9 0 L-2.2 -2.2 Z" fill="#ffffff"></path></g></g><g transform="translate(160 29) rotate(0) scale(1)"><circle cx="0" cy="0" r="10" fill="#ffd21c"></circle><g transform="translate(0 0) scale(0.8 0.8)"><path d="M0 -9 L2.2 -2.2 L9 0 L2.2 2.2 L0 9 L-2.2 2.2 L-9 0 L-2.2 -2.2 Z" fill="#ffffff"></path></g></g><g transform="translate(184 29) rotate(0) scale(1)"><circle cx="0" cy="0" r="10" fill="#ffd21c"></circle><g transform="translate(0 0) scale(0.8 0.8)"><path d="M0 -9 L2.2 -2.2 L9 0 L2.2 2.2 L0 9 L-2.2 2.2 L-9 0 L-2.2 -2.2 Z" fill="#ffffff"></path></g></g><g transform="translate(208 29) rotate(0) scale(1)"><circle cx="0" cy="0" r="10" fill="#ffd21c"></circle><g transform="translate(0 0) scale(0.8 0.8)"><path d="M0 -9 L2.2 -2.2 L9 0 L2.2 2.2 L0 9 L-2.2 2.2 L-9 0 L-2.2 -2.2 Z" fill="#ffffff"></path></g></g><g transform="translate(232 29) rotate(0) scale(1)"><circle cx="0" cy="0" r="10" fill="#ffd21c"></circle><g transform="translate(0 0) scale(0.8 0.8)"><path d="M0 -9 L2.2 -2.2 L9 0 L2.2 2.2 L0 9 L-2.2 2.2 L-9 0 L-2.2 -2.2 Z" fill="#ffffff"></path></g></g><g transform="translate(256 29) rotate(0) scale(1)"><circle cx="0" cy="0" r="10" fill="#ffd21c"></circle><g transform="translate(0 0) scale(0.8 0.8)"><path d="M0 -9 L2.2 -2.2 L9 0 L2.2 2.2 L0 9 L-2.2 2.2 L-9 0 L-2.2 -2.2 Z" fill="#ffffff"></path></g></g><g transform="translate(280 29) rotate(0) scale(1)"><circle cx="0" cy="0" r="10" fill="#ffd21c"></circle><g transform="translate(0 0) scale(0.8 0.8)"><path d="M0 -9 L2.2 -2.2 L9 0 L2.2 2.2 L0 9 L-2.2 2.2 L-9 0 L-2.2 -2.2 Z" fill="#ffffff"></path></g></g><g transform="translate(304 29) rotate(0) scale(1)"><circle cx="0" cy="0" r="10" fill="#ffd21c"></circle><g transform="translate(0 0) scale(0.8 0.8)"><path d="M0 -9 L2.2 -2.2 L9 0 L2.2 2.2 L0 9 L-2.2 2.2 L-9 0 L-2.2 -2.2 Z" fill="#ffffff"></path></g></g></svg>
