<svg xmlns="http://www.w3.org/2000/svg" viewBox="0 0 440 400" width="440" height="400"><rect x="0" y="0" width="440" height="400" rx="0" fill="#bfe8fb"></rect><circle cx="372" cy="66" r="40.3" fill="#fff3b0" opacity="0.6"></circle><circle cx="372" cy="66" r="26" fill="#ffd21c"></circle><circle cx="363.7" cy="57.7" r="6" fill="#ffffff" opacity="0.7"></circle><g transform="translate(70 62) scale(1 1)"><ellipse cx="0" cy="10" rx="42" ry="14" fill="#ffffff"></ellipse><circle cx="-14" cy="2" r="15" fill="#ffffff"></circle><circle cx="10" cy="-4" r="19" fill="#ffffff"></circle><circle cx="28" cy="6" r="12" fill="#ffffff"></circle></g><g transform="translate(250 44) scale(0.8 0.8)"><ellipse cx="0" cy="10" rx="42" ry="14" fill="#ffffff"></ellipse><circle cx="-14" cy="2" r="15" fill="#ffffff"></circle><circle cx="10" cy="-4" r="19" fill="#ffffff"></circle><circle cx="28" cy="6" r="12" fill="#ffffff"></circle></g><path d="M0 250 Q 90 220 180 246 Q 280 272 360 240 Q 410 228 440 242 L440 400 L0 400 Z" fill="#b5e08f"></path><path d="M0 302 Q 220 282 440 306 L440 400 L0 400 Z" fill="#8fd06a"></path><ellipse cx="350" cy="330" rx="80" ry="18" fill="#5fbfe9"></ellipse><ellipse cx="326" cy="326.4" rx="28" ry="3.2" fill="#8fd4f2"></ellipse><ellipse cx="378" cy="334.5" rx="20" ry="2.5" fill="#8fd4f2"></ellipse><path d="M0 362 Q 220 348 440 364 L440 400 L0 400 Z" fill="#7cc152"></path><path d="M36 372 l3 -10 l3 10 l3 -8 l3 8" stroke="#5fae3c" stroke-width="2.5" fill="none" stroke-linecap="round" stroke-linejoin="round"></path><path d="M396 368 l3 -10 l3 10 l3 -8 l3 8" stroke="#5fae3c" stroke-width="2.5" fill="none" stroke-linecap="round" stroke-linejoin="round"></path><circle cx="120" cy="324" r="3" fill="#ffffff"></circle><circle cx="330" cy="338" r="3" fill="#ffd21c"></circle><g transform="translate(236 378) scale(2.2 2.2)"><ellipse cx="0" cy="-8" rx="34" ry="12" fill="#a5703f"></ellipse><ellipse cx="0" cy="-14" rx="26" ry="7" fill="#6b4a2e"></ellipse><path d="M-30 -12 q14 6 30 -2 q14 -6 30 2 M-26 -4 q16 4 30 -2 q14 -4 24 2" stroke="#c98f4f" stroke-width="2.5" fill="none" stroke-linecap="round" stroke-linejoin="round"></path></g><g transform="translate(130 362) scale(1.2 1.2)"><ellipse cx="0" cy="0" rx="28" ry="5.3" fill="#2f6b1a" opacity="0.2"></ellipse><path d="M12 -10 Q40 -6 46 -26 Q48 -36 41 -33 Q36 -20 14 -22 Z" fill="#ff9a4d"></path><ellipse cx="21" cy="-50.4" rx="6" ry="12" fill="#e97a2c" transform="rotate(-150 21 -50.4)"></ellipse><circle cx="27" cy="-60.8" r="5.6" fill="#ff9a4d"></circle><ellipse cx="-11" cy="-4" rx="10" ry="5.5" fill="#e97a2c"></ellipse><ellipse cx="11" cy="-4" rx="10" ry="5.5" fill="#e97a2c"></ellipse><ellipse cx="0" cy="-26" rx="19" ry="22" fill="#ff9a4d"></ellipse><ellipse cx="0" cy="-21" rx="10.8" ry="13.2" fill="#ffd98a"></ellipse><circle cx="-9" cy="-34" r="2.6" fill="#e97a2c"></circle><circle cx="8" cy="-18" r="2.2" fill="#e97a2c"></circle><ellipse cx="-18.5" cy="-28.5" rx="6" ry="12" fill="#e97a2c" transform="rotate(17 -18.5 -28.5)"></ellipse><circle cx="-22" cy="-17" r="5.6" fill="#ff9a4d"></circle><circle cx="-11" cy="-78" r="8" fill="#ff9a4d"></circle><circle cx="11" cy="-78" r="8" fill="#ff9a4d"></circle><ellipse cx="0" cy="-62" rx="27" ry="19" fill="#ff9a4d"></ellipse><circle cx="-17" cy="-61" r="4.6" fill="#ffb9c8" opacity="0.8"></circle><circle cx="17" cy="-61" r="4.6" fill="#ffb9c8" opacity="0.8"></circle><circle cx="-11" cy="-79" r="4" fill="#4a2c14"></circle><circle cx="11" cy="-79" r="4" fill="#4a2c14"></circle><circle cx="-9.6" cy="-80.6" r="1.4" fill="#ffffff"></circle><circle cx="12.4" cy="-80.6" r="1.4" fill="#ffffff"></circle><path d="M-5.5 -60 Q0 -51.3 5.5 -60 Z" fill="#c0475a"></path><circle cx="-14" cy="-62" r="2.2" fill="#e97a2c"></circle><circle cx="15" cy="-66" r="1.8" fill="#e97a2c"></circle><circle cx="19" cy="-84" r="4" fill="#ff8fb0"></circle><circle cx="25" cy="-81" r="4" fill="#ff8fb0"></circle><circle cx="22" cy="-87" r="4" fill="#ff8fb0"></circle><circle cx="22" cy="-84" r="2.5" fill="#ffffff"></circle></g><g transform="translate(300 386) scale(1 1)"><path d="M0 0 V-22" stroke="#4caf32" stroke-width="3" fill="none" stroke-linecap="round" stroke-linejoin="round"></path><ellipse cx="6" cy="-8" rx="6" ry="3" fill="#58cc02" transform="rotate(-30 6 -8)"></ellipse><circle cx="-5" cy="-26" r="5" fill="#ffd21c"></circle><circle cx="5" cy="-26" r="5" fill="#ffd21c"></circle><circle cx="0" cy="-31" r="5" fill="#ffd21c"></circle><circle cx="0" cy="-21" r="5" fill="#ffd21c"></circle><circle cx="0" cy="-26" r="3.6" fill="#ffd21c"></circle></g><g transform="translate(56 388) scale(0.9 0.9)"><path d="M0 0 V-22" stroke="#4caf32" stroke-width="3" fill="none" stroke-linecap="round" stroke-linejoin="round"></path><ellipse cx="6" cy="-8" rx="6" ry="3" fill="#58cc02" transform="rotate(-30 6 -8)"></ellipse><circle cx="-5" cy="-26" r="5" fill="#ff8fb0"></circle><circle cx="5" cy="-26" r="5" fill="#ff8fb0"></circle><circle cx="0" cy="-31" r="5" fill="#ff8fb0"></circle><circle cx="0" cy="-21" r="5" fill="#ff8fb0"></circle><circle cx="0" cy="-26" r="3.6" fill="#ffd21c"></circle></g></svg>
