<svg xmlns="http://www.w3.org/2000/svg" viewBox="0 0 440 400" width="440" height="400"><rect x="0" y="0" width="440" height="400" rx="0" fill="#2d3a6b"></rect><circle cx="360" cy="70" r="36" fill="#fff6c8" opacity="0.3"></circle><circle cx="360" cy="70" r="24" fill="#fff1b8"></circle><circle cx="370.8" cy="64" r="20.4" fill="#2d3a6b"></circle><g transform="translate(40 50) scale(0.5 0.5)"><path d="M0 -9 L2.2 -2.2 L9 0 L2.2 2.2 L0 9 L-2.2 2.2 L-9 0 L-2.2 -2.2 Z" fill="#fff1b8"></path></g><g transform="translate(110 90) scale(0.4 0.4)"><path d="M0 -9 L2.2 -2.2 L9 0 L2.2 2.2 L0 9 L-2.2 2.2 L-9 0 L-2.2 -2.2 Z" fill="#fff1b8"></path></g><g transform="translate(170 40) scale(0.5 0.5)"><path d="M0 -9 L2.2 -2.2 L9 0 L2.2 2.2 L0 9 L-2.2 2.2 L-9 0 L-2.2 -2.2 Z" fill="#fff1b8"></path></g><g transform="translate(240 100) scale(0.4 0.4)"><path d="M0 -9 L2.2 -2.2 L9 0 L2.2 2.2 L0 9 L-2.2 2.2 L-9 0 L-2.2 -2.2 Z" fill="#fff1b8"></path></g><g transform="translate(300 50) scale(0.5 0.5)"><path d="M0 -9 L2.2 -2.2 L9 0 L2.2 2.2 L0 9 L-2.2 2.2 L-9 0 L-2.2 -2.2 Z" fill="#fff1b8"></path></g><g transform="translate(60 150) scale(0.4 0.4)"><path d="M0 -9 L2.2 -2.2 L9 0 L2.2 2.2 L0 9 L-2.2 2.2 L-9 0 L-2.2 -2.2 Z" fill="#fff1b8"></path></g><g transform="translate(410 150) scale(0.4 0.4)"><path d="M0 -9 L2.2 -2.2 L9 0 L2.2 2.2 L0 9 L-2.2 2.2 L-9 0 L-2.2 -2.2 Z" fill="#fff1b8"></path></g><path d="M0 262 Q 90 232 180 258 Q 280 284 360 252 Q 410 240 440 254 L440 400 L0 400 Z" fill="#3f6b5a"></path><path d="M0 312 Q 220 292 440 316 L440 400 L0 400 Z" fill="#335a4a"></path><path d="M0 368 Q 220 354 440 370 L440 400 L0 400 Z" fill="#2e5242"></path><g transform="translate(220 386) scale(1 1)"><path d="M-16 0 L16 -6 M-16 -6 L16 0" stroke="#8f5f33" stroke-width="5" fill="none" stroke-linecap="round" stroke-linejoin="round"></path><path d="M-12 -6 Q-14 -26 0 -40 Q14 -26 12 -6 Z" fill="#ff9d3d"></path><path d="M-6 -6 Q-6 -20 0 -28 Q6 -20 6 -6 Z" fill="#ffd21c"></path></g><g transform="translate(116 366) scale(1 1)"><ellipse cx="0" cy="0" rx="28" ry="5.3" fill="#2f6b1a" opacity="0.2"></ellipse><path d="M12 -10 Q40 -6 46 -26 Q48 -36 41 -33 Q36 -20 14 -22 Z" fill="#ff9a4d"></path><ellipse cx="-11" cy="-4" rx="10" ry="5.5" fill="#e97a2c"></ellipse><ellipse cx="11" cy="-4" rx="10" ry="5.5" fill="#e97a2c"></ellipse><ellipse cx="0" cy="-26" rx="19" ry="22" fill="#ff9a4d"></ellipse><ellipse cx="0" cy="-21" rx="10.8" ry="13.2" fill="#ffd98a"></ellipse><circle cx="-9" cy="-34" r="2.6" fill="#e97a2c"></circle><circle cx="8" cy="-18" r="2.2" fill="#e97a2c"></circle><ellipse cx="-12.3" cy="-32.5" rx="6" ry="8" fill="#e97a2c" transform="rotate(-20 -12.3 -32.5)"></ellipse><circle cx="-9.5" cy="-25" r="5.6" fill="#ff9a4d"></circle><ellipse cx="12.3" cy="-32.5" rx="6" ry="8" fill="#e97a2c" transform="rotate(20 12.3 -32.5)"></ellipse><circle cx="9.5" cy="-25" r="5.6" fill="#ff9a4d"></circle><circle cx="-11" cy="-78" r="8" fill="#ff9a4d"></circle><circle cx="11" cy="-78" r="8" fill="#ff9a4d"></circle><ellipse cx="0" cy="-62" rx="27" ry="19" fill="#ff9a4d"></ellipse><circle cx="-17" cy="-61" r="4.6" fill="#ffb9c8" opacity="0.8"></circle><circle cx="17" cy="-61" r="4.6" fill="#ffb9c8" opacity="0.8"></circle><path d="M-14.6 -78 Q-11 -83.5 -7.4 -78" stroke="#4a2c14" stroke-width="2.5" fill="none" stroke-linecap="round" stroke-linejoin="round"></path><path d="M7.4 -78 Q11 -83.5 14.6 -78" stroke="#4a2c14" stroke-width="2.5" fill="none" stroke-linecap="round" stroke-linejoin="round"></path><path d="M-5.5 -60 Q0 -51.3 5.5 -60 Z" fill="#c0475a"></path><circle cx="-14" cy="-62" r="2.2" fill="#e97a2c"></circle><circle cx="15" cy="-66" r="1.8" fill="#e97a2c"></circle><circle cx="19" cy="-84" r="4" fill="#ff8fb0"></circle><circle cx="25" cy="-81" r="4" fill="#ff8fb0"></circle><circle cx="22" cy="-87" r="4" fill="#ff8fb0"></circle><circle cx="22" cy="-84" r="2.5" fill="#ffffff"></circle></g><g transform="translate(116 344) scale(0.8 0.8)"><path d="M-26 -24 Q-24 0 0 0 Q24 0 26 -24 Z" fill="#ff8f8f"></path><ellipse cx="0" cy="-24" rx="26" ry="6" fill="#ffe9b0"></ellipse><path d="M-14 -26 q4 -8 8 0 q4 -8 8 0 q4 -8 8 0" stroke="#f5d27a" stroke-width="2.5" fill="none" stroke-linecap="round" stroke-linejoin="round"></path><path d="M8 -30 L30 -58 M14 -28 L36 -54" stroke="#b07a45" stroke-width="3" fill="none" stroke-linecap="round" stroke-linejoin="round"></path></g><g transform="translate(324 366) scale(-1 1)"><ellipse cx="0" cy="0" rx="28" ry="5.3" fill="#2f6b1a" opacity="0.2"></ellipse><path d="M12 -10 Q40 -6 46 -26 Q48 -36 41 -33 Q36 -20 14 -22 Z" fill="#7cc95c"></path><ellipse cx="-11" cy="-4" rx="10" ry="5.5" fill="#5fae3c"></ellipse><ellipse cx="11" cy="-4" rx="10" ry="5.5" fill="#5fae3c"></ellipse><ellipse cx="0" cy="-26" rx="19" ry="22" fill="#7cc95c"></ellipse><ellipse cx="0" cy="-21" rx="10.8" ry="13.2" fill="#ffd98a"></ellipse><circle cx="-9" cy="-34" r="2.6" fill="#5fae3c"></circle><circle cx="8" cy="-18" r="2.2" fill="#5fae3c"></circle><ellipse cx="-12.3" cy="-32.5" rx="6" ry="8" fill="#5fae3c" transform="rotate(-20 -12.3 -32.5)"></ellipse><circle cx="-9.5" cy="-25" r="5.6" fill="#7cc95c"></circle><ellipse cx="12.3" cy="-32.5" rx="6" ry="8" fill="#5fae3c" transform="rotate(20 12.3 -32.5)"></ellipse><circle cx="9.5" cy="-25" r="5.6" fill="#7cc95c"></circle><circle cx="-11" cy="-78" r="8" fill="#7cc95c"></circle><circle cx="11" cy="-78" r="8" fill="#7cc95c"></circle><ellipse cx="0" cy="-62" rx="27" ry="19" fill="#7cc95c"></ellipse><circle cx="-17" cy="-61" r="4.6" fill="#ffb9c8" opacity="0.8"></circle><circle cx="17" cy="-61" r="4.6" fill="#ffb9c8" opacity="0.8"></circle><path d="M-14.6 -78 Q-11 -83.5 -7.4 -78" stroke="#4a2c14" stroke-width="2.5" fill="none" stroke-linecap="round" stroke-linejoin="round"></path><path d="M7.4 -78 Q11 -83.5 14.6 -78" stroke="#4a2c14" stroke-width="2.5" fill="none" stroke-linecap="round" stroke-linejoin="round"></path><path d="M-5.5 -60 Q0 -51.3 5.5 -60 Z" fill="#c0475a"></path><circle cx="-14" cy="-62" r="2.2" fill="#5fae3c"></circle><circle cx="15" cy="-66" r="1.8" fill="#5fae3c"></circle></g><g transform="translate(324 344) scale(0.8 0.8)"><path d="M-26 -24 Q-24 0 0 0 Q24 0 26 -24 Z" fill="#ff8f8f"></path><ellipse cx="0" cy="-24" rx="26" ry="6" fill="#ffe9b0"></ellipse><path d="M-14 -26 q4 -8 8 0 q4 -8 8 0 q4 -8 8 0" stroke="#f5d27a" stroke-width="2.5" fill="none" stroke-linecap="round" stroke-linejoin="round"></path><path d="M8 -30 L30 -58 M14 -28 L36 -54" stroke="#b07a45" stroke-width="3" fill="none" stroke-linecap="round" stroke-linejoin="round"></path></g><circle cx="60" cy="230" r="5" fill="#fff1b8" opacity="0.4"></circle><circle cx="60" cy="230" r="2.2" fill="#fff1b8"></circle><circle cx="380" cy="250" r="5" fill="#fff1b8" opacity="0.4"></circle><circle cx="380" cy="250" r="2.2" fill="#fff1b8"></circle><circle cx="220" cy="200" r="5" fill="#fff1b8" opacity="0.4"></circle><circle cx="220" cy="200" r="2.2" fill="#fff1b8"></circle><circle cx="150" cy="270" r="5" fill="#fff1b8" opacity="0.4"></circle><circle cx="150" cy="270" r="2.2" fill="#fff1b8"></circle></svg>
