<svg xmlns="http://www.w3.org/2000/svg" viewBox="0 0 440 400" width="440" height="400"><rect x="0" y="0" width="440" height="400" rx="0" fill="#aab6c8"></rect><path d="M0 250 Q 90 220 180 246 Q 280 272 360 240 Q 410 228 440 242 L440 400 L0 400 Z" fill="#b5e08f"></path><path d="M0 302 Q 220 282 440 306 L440 400 L0 400 Z" fill="#8fd06a"></path><path d="M0 362 Q 220 348 440 364 L440 400 L0 400 Z" fill="#7cc152"></path><path d="M36 372 l3 -10 l3 10 l3 -8 l3 8" stroke="#5fae3c" stroke-width="2.5" fill="none" stroke-linecap="round" stroke-linejoin="round"></path><path d="M396 368 l3 -10 l3 10 l3 -8 l3 8" stroke="#5fae3c" stroke-width="2.5" fill="none" stroke-linecap="round" stroke-linejoin="round"></path><circle cx="120" cy="324" r="3" fill="#ffffff"></circle><circle cx="330" cy="338" r="3" fill="#ffd21c"></circle><g transform="translate(110 70) scale(1.3 1.3)"><ellipse cx="0" cy="10" rx="46" ry="16" fill="#7d8aa0"></ellipse><circle cx="-16" cy="0" r="17" fill="#7d8aa0"></circle><circle cx="12" cy="-6" r="21" fill="#7d8aa0"></circle><circle cx="32" cy="6" r="13" fill="#7d8aa0"></circle></g><g transform="translate(320 60) scale(1.5 1.5)"><ellipse cx="0" cy="10" rx="46" ry="16" fill="#7d8aa0"></ellipse><circle cx="-16" cy="0" r="17" fill="#7d8aa0"></circle><circle cx="12" cy="-6" r="21" fill="#7d8aa0"></circle><circle cx="32" cy="6" r="13" fill="#7d8aa0"></circle></g><path d="M184.3 280 l-5 14 M229.8 266.5 l-5 14 M240.3 188.4 l-5 14 M28.2 147.8 l-5 14 M413.2 200.4 l-5 14 M66.9 255.1 l-5 14 M223.9 274 l-5 14 M59.5 232.7 l-5 14 M334.3 200.1 l-5 14 M104.9 178.4 l-5 14 M102.2 243.3 l-5 14 M375.7 263.5 l-5 14 M204.3 281.3 l-5 14 M274.5 292.2 l-5 14 M324.5 145.2 l-5 14 M255.6 282.4 l-5 14 M309.8 259.4 l-5 14 M314.1 265.2 l-5 14 M392.1 241.9 l-5 14 M341.3 205 l-5 14 M77.8 143.6 l-5 14 M347.1 219.7 l-5 14 " stroke="#dff4ff" stroke-width="3" fill="none" stroke-linecap="round" stroke-linejoin="round"></path><g transform="translate(220 372) scale(1.4 1.4)"><ellipse cx="0" cy="0" rx="28" ry="5.3" fill="#2f6b1a" opacity="0.2"></ellipse><ellipse cx="-11" cy="-4" rx="11" ry="5.5" fill="#8a6844"></ellipse><ellipse cx="11" cy="-4" rx="11" ry="5.5" fill="#8a6844"></ellipse><ellipse cx="0" cy="-26" rx="22" ry="25" fill="#c9a878"></ellipse><ellipse cx="0" cy="-21" rx="12.5" ry="15" fill="#d9bf98"></ellipse><ellipse cx="-6.3" cy="-35" rx="6" ry="10" fill="#b8966a" transform="rotate(-60 -6.3 -35)"></ellipse><circle cx="2.3" cy="-30" r="5.6" fill="#8a6844"></circle><ellipse cx="6.3" cy="-35" rx="6" ry="10" fill="#b8966a" transform="rotate(60 6.3 -35)"></ellipse><circle cx="-2.3" cy="-30" r="5.6" fill="#8a6844"></circle><circle cx="0" cy="-66" r="25" fill="#c9a878"></circle><ellipse cx="0" cy="-64" rx="20" ry="17" fill="#f0dcc0"></ellipse><ellipse cx="-9" cy="-67" rx="7" ry="4.5" fill="#8a6844" transform="rotate(-20 -9 -67)"></ellipse><ellipse cx="9" cy="-67" rx="7" ry="4.5" fill="#8a6844" transform="rotate(20 9 -67)"></ellipse><circle cx="-14" cy="-59" r="4.6" fill="#ffb9c8" opacity="0.8"></circle><circle cx="14" cy="-59" r="4.6" fill="#ffb9c8" opacity="0.8"></circle><circle cx="-9" cy="-67" r="2.6" fill="#2b2a4a"></circle><circle cx="9" cy="-67" r="2.6" fill="#2b2a4a"></circle><circle cx="-8.1" cy="-68" r="0.9" fill="#ffffff"></circle><circle cx="9.9" cy="-68" r="0.9" fill="#ffffff"></circle><path d="M-5 -54 q1.7 -2 3.3 0 q1.7 2 3.3 0 q1.7 -2 3.3 0" stroke="#4a2c14" stroke-width="1.6" fill="none" stroke-linecap="round" stroke-linejoin="round"></path><path d="M-13 -73.6 L-6 -75.6" stroke="#2b2a4a" stroke-width="1.6" fill="none" stroke-linecap="round" stroke-linejoin="round"></path><path d="M13 -73.6 L6 -75.6" stroke="#2b2a4a" stroke-width="1.6" fill="none" stroke-linecap="round" stroke-linejoin="round"></path><ellipse cx="0" cy="-60" rx="3.2" ry="2.4" fill="#4a2c14"></ellipse></g><g transform="translate(220 250) scale(1.3 1.3)"><path d="M-30 -10 l-6 4 l6 4 l-6 4 M30 -10 l6 4 l-6 4 l6 4" stroke="#8fb8e0" stroke-width="2.4" fill="none" stroke-linecap="round" stroke-linejoin="round"></path></g></svg>
