<svg xmlns="http://www.w3.org/2000/svg" viewBox="0 0 440 400" width="440" height="400"><rect x="0" y="0" width="440" height="300" rx="0" fill="#fff0d9"></rect><rect x="0" y="292" width="440" height="8" rx="0" fill="#e8c99a"></rect><rect x="0" y="300" width="440" height="100" rx="0" fill="#e3b98a"></rect><path d="M0 334 H440 M0 370 H440" stroke="#d4a77a" stroke-width="3" fill="none" stroke-linecap="round" stroke-linejoin="round"></path><rect x="294" y="44" width="116" height="98" rx="8" fill="#ffffff"></rect><rect x="300" y="50" width="104" height="86" rx="5" fill="#bfe8fb"></rect><path d="M352 50 V136 M300 93 H404" stroke="#ffffff" stroke-width="5" fill="none" stroke-linecap="round" stroke-linejoin="round"></path><rect x="290" y="140" width="124" height="8" rx="3" fill="#e8c99a"></rect><rect x="0" y="228" width="440" height="74" rx="4" fill="#ffd9a8"></rect><rect x="0" y="222" width="440" height="10" rx="4" fill="#e8c99a"></rect><path d="M110 236 V296 M220 236 V296 M330 236 V296" stroke="#f0c890" stroke-width="3" fill="none" stroke-linecap="round" stroke-linejoin="round"></path><circle cx="96" cy="266" r="3" fill="#c98f4f"></circle><circle cx="124" cy="266" r="3" fill="#c98f4f"></circle><circle cx="316" cy="266" r="3" fill="#c98f4f"></circle><circle cx="344" cy="266" r="3" fill="#c98f4f"></circle><g transform="translate(400 222) scale(0.6 0.6)"><rect x="-10" y="-40" width="20" height="40" rx="5" fill="#ffffff"></rect><rect x="-7" y="-46" width="14" height="8" rx="2" fill="#4db3f2"></rect><rect x="-10" y="-26" width="20" height="12" rx="2" fill="#4db3f2"></rect></g><rect x="372" y="204" width="16" height="18" rx="4" fill="#ff8fb0"></rect><rect x="30" y="70" width="80" height="8" rx="3" fill="#e8c99a"></rect><g transform="translate(50 70) scale(0.9 0.9)"><path d="M-9 -14 H9 L7 0 H-7 Z" fill="#ff8fb0"></path><path d="M9 -11 q6 0 5 5 q-1 3 -6 3" stroke="#ff8fb0" stroke-width="2.5" fill="none" stroke-linecap="round" stroke-linejoin="round"></path><ellipse cx="0" cy="-14" rx="9" ry="2.4" fill="#c98441"></ellipse></g><g transform="translate(84 70) scale(0.9 0.9)"><path d="M-9 -14 H9 L7 0 H-7 Z" fill="#4db3f2"></path><path d="M9 -11 q6 0 5 5 q-1 3 -6 3" stroke="#4db3f2" stroke-width="2.5" fill="none" stroke-linecap="round" stroke-linejoin="round"></path><ellipse cx="0" cy="-14" rx="9" ry="2.4" fill="#c98441"></ellipse></g><rect x="20" y="150" width="100" height="150" rx="8" fill="#b07a45"></rect><rect x="30" y="160" width="80" height="140" rx="6" fill="#6b4a2e"></rect><g transform="translate(70 300) scale(1 1)"><ellipse cx="0" cy="0" rx="28" ry="5.3" fill="#2f6b1a" opacity="0.2"></ellipse><ellipse cx="21" cy="-50.4" rx="6" ry="12" fill="#5e4e49" transform="rotate(-150 21 -50.4)"></ellipse><circle cx="27" cy="-60.8" r="7" fill="#f5a3b5"></circle><ellipse cx="-11" cy="-4" rx="11" ry="5.5" fill="#f5a3b5"></ellipse><ellipse cx="11" cy="-4" rx="11" ry="5.5" fill="#f5a3b5"></ellipse><ellipse cx="0" cy="-26" rx="21" ry="24" fill="#6b5a55"></ellipse><ellipse cx="0" cy="-21" rx="12" ry="14.4" fill="#8a7670"></ellipse><ellipse cx="-18.5" cy="-28.5" rx="6" ry="12" fill="#5e4e49" transform="rotate(17 -18.5 -28.5)"></ellipse><circle cx="-22" cy="-17" r="7" fill="#f5a3b5"></circle><circle cx="0" cy="-64" r="24" fill="#6b5a55"></circle><ellipse cx="0" cy="-57" rx="13" ry="9" fill="#8a7670"></ellipse><circle cx="-16" cy="-60" r="4.6" fill="#ffb9c8" opacity="0.8"></circle><circle cx="16" cy="-60" r="4.6" fill="#ffb9c8" opacity="0.8"></circle><circle cx="-9" cy="-69" r="2.6" fill="#2b2224"></circle><circle cx="9" cy="-69" r="2.6" fill="#2b2224"></circle><circle cx="-8.1" cy="-70" r="0.9" fill="#ffffff"></circle><circle cx="9.9" cy="-70" r="0.9" fill="#ffffff"></circle><path d="M-5.5 -53 Q0 -44.3 5.5 -53 Z" fill="#c0475a"></path><circle cx="-9" cy="-69" r="6.5" fill="#dff4ff" opacity="0.6" stroke="#3d3a4a" stroke-width="2"></circle><circle cx="9" cy="-69" r="6.5" fill="#dff4ff" opacity="0.6" stroke="#3d3a4a" stroke-width="2"></circle><path d="M-2.5 -69 H2.5" stroke="#3d3a4a" stroke-width="2" fill="none" stroke-linecap="round" stroke-linejoin="round"></path><ellipse cx="0" cy="-60" rx="6" ry="4.5" fill="#ff8fa3"></ellipse></g><g transform="translate(300 356) scale(1.2 1.2)"><ellipse cx="0" cy="0" rx="28" ry="5.3" fill="#2f6b1a" opacity="0.2"></ellipse><path d="M16 -12 q24 -4 22 -24 q-2 -10 8 -12" stroke="#f0a6b8" stroke-width="3" fill="none" stroke-linecap="round" stroke-linejoin="round"></path><ellipse cx="-11" cy="-4" rx="9" ry="5.5" fill="#f5c6d0"></ellipse><ellipse cx="11" cy="-4" rx="9" ry="5.5" fill="#f5c6d0"></ellipse><ellipse cx="0" cy="-26" rx="19" ry="22" fill="#c9c3cf"></ellipse><ellipse cx="0" cy="-21" rx="10.8" ry="13.2" fill="#efeaf2"></ellipse><path d="M-13 -40 H13 V-12 Q0 -6 -13 -12 Z" fill="#ffffff"></path><rect x="-5" y="-30" width="10" height="8" rx="2" fill="#ff8fb0"></rect><path d="M-13 -40 L-8 -48 M13 -40 L8 -48" stroke="#ffffff" stroke-width="2.5" fill="none" stroke-linecap="round" stroke-linejoin="round"></path><ellipse cx="-18.5" cy="-28.5" rx="6" ry="12" fill="#b9b2c0" transform="rotate(17 -18.5 -28.5)"></ellipse><circle cx="-22" cy="-17" r="5.6" fill="#f5c6d0"></circle><ellipse cx="18.5" cy="-28.5" rx="6" ry="12" fill="#b9b2c0" transform="rotate(-17 18.5 -28.5)"></ellipse><circle cx="22" cy="-17" r="5.6" fill="#f5c6d0"></circle><circle cx="-20" cy="-86" r="13" fill="#c9c3cf"></circle><circle cx="20" cy="-86" r="13" fill="#c9c3cf"></circle><circle cx="-20" cy="-86" r="8" fill="#ffb9c8"></circle><circle cx="20" cy="-86" r="8" fill="#ffb9c8"></circle><circle cx="0" cy="-64" r="23" fill="#c9c3cf"></circle><circle cx="-14.5" cy="-58" r="4.6" fill="#ffb9c8" opacity="0.8"></circle><circle cx="14.5" cy="-58" r="4.6" fill="#ffb9c8" opacity="0.8"></circle><circle cx="-11.5" cy="-67" r="3.9" fill="#4a2c14"></circle><circle cx="5.5" cy="-67" r="3.9" fill="#4a2c14"></circle><circle cx="-10.2" cy="-68.6" r="1.3" fill="#ffffff"></circle><circle cx="6.8" cy="-68.6" r="1.3" fill="#ffffff"></circle><ellipse cx="0" cy="-53.5" rx="2.8" ry="3.4" fill="#c0475a"></ellipse><circle cx="0" cy="-58.5" r="3.4" fill="#ff8fa3"></circle><path d="M-6 -57 H-20 M-6 -54 L-19 -51 M6 -57 H20 M6 -54 L19 -51" stroke="#8a8494" stroke-width="1.2" fill="none" stroke-linecap="round" stroke-linejoin="round"></path><ellipse cx="0" cy="-88" rx="18" ry="6" fill="#ffffff"></ellipse><circle cx="-9" cy="-96" r="9" fill="#ffffff"></circle><circle cx="3" cy="-99" r="10" fill="#ffffff"></circle><circle cx="12" cy="-94" r="8" fill="#ffffff"></circle></g><rect x="130" y="122" width="80" height="56" rx="28" fill="#ffffff"></rect><path d="M154 176 l-14 16 l2 -18 Z" fill="#ffffff"></path><g transform="translate(160 170) scale(0.7 0.7)"><rect x="-10" y="-40" width="20" height="40" rx="5" fill="#ffffff"></rect><rect x="-7" y="-46" width="14" height="8" rx="2" fill="#4db3f2"></rect><rect x="-10" y="-26" width="20" height="12" rx="2" fill="#4db3f2"></rect></g><g transform="translate(186 160) scale(0.6 0.6)"><path d="M-8 -12 Q-8 -22 0 -22 Q8 -22 8 -14 Q8 -8 1 -5 L1 2" stroke="#e0601a" stroke-width="4.5" fill="none" stroke-linecap="round" stroke-linejoin="round"></path><circle cx="1" cy="11" r="3" fill="#e0601a"></circle></g></svg>
