<svg xmlns="http://www.w3.org/2000/svg" viewBox="0 0 440 400" width="440" height="400"><rect x="0" y="0" width="440" height="400" rx="0" fill="#2d3a6b"></rect><circle cx="360" cy="70" r="36" fill="#fff6c8" opacity="0.3"></circle><circle cx="360" cy="70" r="24" fill="#fff1b8"></circle><circle cx="370.8" cy="64" r="20.4" fill="#2d3a6b"></circle><g transform="translate(40 50) scale(0.5 0.5)"><path d="M0 -9 L2.2 -2.2 L9 0 L2.2 2.2 L0 9 L-2.2 2.2 L-9 0 L-2.2 -2.2 Z" fill="#fff1b8"></path></g><g transform="translate(110 90) scale(0.4 0.4)"><path d="M0 -9 L2.2 -2.2 L9 0 L2.2 2.2 L0 9 L-2.2 2.2 L-9 0 L-2.2 -2.2 Z" fill="#fff1b8"></path></g><g transform="translate(170 40) scale(0.5 0.5)"><path d="M0 -9 L2.2 -2.2 L9 0 L2.2 2.2 L0 9 L-2.2 2.2 L-9 0 L-2.2 -2.2 Z" fill="#fff1b8"></path></g><g transform="translate(240 100) scale(0.4 0.4)"><path d="M0 -9 L2.2 -2.2 L9 0 L2.2 2.2 L0 9 L-2.2 2.2 L-9 0 L-2.2 -2.2 Z" fill="#fff1b8"></path></g><g transform="translate(300 50) scale(0.5 0.5)"><path d="M0 -9 L2.2 -2.2 L9 0 L2.2 2.2 L0 9 L-2.2 2.2 L-9 0 L-2.2 -2.2 Z" fill="#fff1b8"></path></g><g transform="translate(60 150) scale(0.4 0.4)"><path d="M0 -9 L2.2 -2.2 L9 0 L2.2 2.2 L0 9 L-2.2 2.2 L-9 0 L-2.2 -2.2 Z" fill="#fff1b8"></path></g><g transform="translate(410 150) scale(0.4 0.4)"><path d="M0 -9 L2.2 -2.2 L9 0 L2.2 2.2 L0 9 L-2.2 2.2 L-9 0 L-2.2 -2.2 Z" fill="#fff1b8"></path></g><path d="M0 262 Q 90 232 180 258 Q 280 284 360 252 Q 410 240 440 254 L440 400 L0 400 Z" fill="#3f6b5a"></path><path d="M0 312 Q 220 292 440 316 L440 400 L0 400 Z" fill="#335a4a"></path><path d="M0 368 Q 220 354 440 370 L440 400 L0 400 Z" fill="#2e5242"></path><g transform="translate(220 344) scale(1 1)"><ellipse cx="0" cy="0" rx="28" ry="5.3" fill="#2f6b1a" opacity="0.2"></ellipse><ellipse cx="-11" cy="-4" rx="11" ry="5.5" fill="#6b4a2e"></ellipse><ellipse cx="11" cy="-4" rx="11" ry="5.5" fill="#6b4a2e"></ellipse><ellipse cx="0" cy="-26" rx="24" ry="27" fill="#a86f45"></ellipse><ellipse cx="0" cy="-21" rx="13.7" ry="16.2" fill="#c4916a"></ellipse><ellipse cx="-18.5" cy="-28.5" rx="6" ry="12" fill="#94603b" transform="rotate(17 -18.5 -28.5)"></ellipse><circle cx="-22" cy="-17" r="5.6" fill="#6b4a2e"></circle><ellipse cx="18.5" cy="-28.5" rx="6" ry="12" fill="#94603b" transform="rotate(-17 18.5 -28.5)"></ellipse><circle cx="22" cy="-17" r="5.6" fill="#6b4a2e"></circle><g transform="scale(1 1)"><path d="M10 -86 Q18 -104 34 -102 Q30 -96 38 -92 Q30 -88 36 -82 Q24 -84 14 -78 Z" fill="#e7cfa6"></path></g><g transform="scale(-1 1)"><path d="M10 -86 Q18 -104 34 -102 Q30 -96 38 -92 Q30 -88 36 -82 Q24 -84 14 -78 Z" fill="#e7cfa6"></path></g><ellipse cx="-22" cy="-72" rx="9" ry="4.5" fill="#a86f45" transform="rotate(-25 -22 -72)"></ellipse><ellipse cx="22" cy="-72" rx="9" ry="4.5" fill="#a86f45" transform="rotate(25 22 -72)"></ellipse><ellipse cx="0" cy="-68" rx="21" ry="24" fill="#a86f45"></ellipse><ellipse cx="0" cy="-52" rx="14" ry="11" fill="#c4916a"></ellipse><circle cx="-15" cy="-64" r="4.6" fill="#ffb9c8" opacity="0.8"></circle><circle cx="15" cy="-64" r="4.6" fill="#ffb9c8" opacity="0.8"></circle><path d="M-12.6 -73 Q-9 -78.5 -5.4 -73" stroke="#4a2c14" stroke-width="2.5" fill="none" stroke-linecap="round" stroke-linejoin="round"></path><path d="M5.4 -73 Q9 -78.5 12.6 -73" stroke="#4a2c14" stroke-width="2.5" fill="none" stroke-linecap="round" stroke-linejoin="round"></path><path d="M-5.5 -49 Q0 -40.3 5.5 -49 Z" fill="#c0475a"></path><circle cx="-4" cy="-54" r="1.8" fill="#6b4a2e"></circle><circle cx="4" cy="-54" r="1.8" fill="#6b4a2e"></circle><circle cx="30" cy="-98" r="4" fill="#ff8fb0"></circle><circle cx="36" cy="-95" r="4" fill="#ff8fb0"></circle><circle cx="33" cy="-101" r="4" fill="#ff8fb0"></circle><circle cx="33" cy="-98" r="2.5" fill="#ffd21c"></circle></g><g transform="translate(220 398) scale(1.1 1.1)"><rect x="-85" y="-54" width="170" height="10" rx="4" fill="#c98f4f"></rect><rect x="-77" y="-44" width="8" height="44" rx="3" fill="#b07a45"></rect><rect x="69" y="-44" width="8" height="44" rx="3" fill="#b07a45"></rect></g><g transform="translate(200 338) scale(1.1 1.1)"><rect x="-40" y="-4" width="80" height="6" rx="3" fill="#b3b9c4"></rect><g transform="translate(-24 -4) scale(.85)"><path d="M-12 -12 H12 L9 0 H-9 Z" fill="#ff8fb0"></path><path d="M-6 -12 L-5 0 M0 -12 V0 M6 -12 L5 0" stroke="#f06d97" stroke-width="1.5" fill="none" stroke-linecap="round" stroke-linejoin="round"></path><path d="M-14 -12 Q-14 -26 0 -26 Q14 -26 14 -12 Z" fill="#e8a85a"></path><circle cx="-5" cy="-19" r="2" fill="#6a3ad9"></circle><circle cx="4" cy="-21" r="2" fill="#6a3ad9"></circle></g><g transform="translate(0 -4) scale(.85)"><path d="M-12 -12 H12 L9 0 H-9 Z" fill="#ff8fb0"></path><path d="M-6 -12 L-5 0 M0 -12 V0 M6 -12 L5 0" stroke="#f06d97" stroke-width="1.5" fill="none" stroke-linecap="round" stroke-linejoin="round"></path><path d="M-14 -12 Q-14 -26 0 -26 Q14 -26 14 -12 Z" fill="#c98441"></path><circle cx="-5" cy="-19" r="2" fill="#6a3ad9"></circle><circle cx="4" cy="-21" r="2" fill="#6a3ad9"></circle></g><g transform="translate(24 -4) scale(.85)"><path d="M-12 -12 H12 L9 0 H-9 Z" fill="#ff8fb0"></path><path d="M-6 -12 L-5 0 M0 -12 V0 M6 -12 L5 0" stroke="#f06d97" stroke-width="1.5" fill="none" stroke-linecap="round" stroke-linejoin="round"></path><path d="M-14 -12 Q-14 -26 0 -26 Q14 -26 14 -12 Z" fill="#e8a85a"></path><circle cx="-5" cy="-19" r="2" fill="#6a3ad9"></circle><circle cx="4" cy="-21" r="2" fill="#6a3ad9"></circle></g></g><g transform="translate(270 338) scale(0.8 0.8)"><rect x="-10" y="-40" width="20" height="40" rx="5" fill="#ffffff"></rect><rect x="-7" y="-46" width="14" height="8" rx="2" fill="#4db3f2"></rect><rect x="-10" y="-26" width="20" height="12" rx="2" fill="#4db3f2"></rect></g><g transform="translate(92 372) scale(1 1)"><ellipse cx="0" cy="0" rx="28" ry="5.3" fill="#2f6b1a" opacity="0.2"></ellipse><path d="M16 -12 q24 -4 22 -24 q-2 -10 8 -12" stroke="#f0a6b8" stroke-width="3" fill="none" stroke-linecap="round" stroke-linejoin="round"></path><ellipse cx="-21.9" cy="-49.8" rx="6" ry="12" fill="#b9b2c0" transform="rotate(145 -21.9 -49.8)"></ellipse><circle cx="-28.8" cy="-59.7" r="5.6" fill="#f5c6d0"></circle><ellipse cx="21.9" cy="-49.8" rx="6" ry="12" fill="#b9b2c0" transform="rotate(-145 21.9 -49.8)"></ellipse><circle cx="28.8" cy="-59.7" r="5.6" fill="#f5c6d0"></circle><ellipse cx="-11" cy="-4" rx="9" ry="5.5" fill="#f5c6d0"></ellipse><ellipse cx="11" cy="-4" rx="9" ry="5.5" fill="#f5c6d0"></ellipse><ellipse cx="0" cy="-26" rx="19" ry="22" fill="#c9c3cf"></ellipse><ellipse cx="0" cy="-21" rx="10.8" ry="13.2" fill="#efeaf2"></ellipse><path d="M-13 -40 H13 V-12 Q0 -6 -13 -12 Z" fill="#ffffff"></path><rect x="-5" y="-30" width="10" height="8" rx="2" fill="#ff8fb0"></rect><path d="M-13 -40 L-8 -48 M13 -40 L8 -48" stroke="#ffffff" stroke-width="2.5" fill="none" stroke-linecap="round" stroke-linejoin="round"></path><circle cx="-20" cy="-86" r="13" fill="#c9c3cf"></circle><circle cx="20" cy="-86" r="13" fill="#c9c3cf"></circle><circle cx="-20" cy="-86" r="8" fill="#ffb9c8"></circle><circle cx="20" cy="-86" r="8" fill="#ffb9c8"></circle><circle cx="0" cy="-64" r="23" fill="#c9c3cf"></circle><circle cx="-14.5" cy="-58" r="4.6" fill="#ffb9c8" opacity="0.8"></circle><circle cx="14.5" cy="-58" r="4.6" fill="#ffb9c8" opacity="0.8"></circle><path d="M-12.1 -66 Q-8.5 -71.5 -4.9 -66" stroke="#4a2c14" stroke-width="2.5" fill="none" stroke-linecap="round" stroke-linejoin="round"></path><path d="M4.9 -66 Q8.5 -71.5 12.1 -66" stroke="#4a2c14" stroke-width="2.5" fill="none" stroke-linecap="round" stroke-linejoin="round"></path><path d="M-5.5 -56 Q0 -47.3 5.5 -56 Z" fill="#c0475a"></path><circle cx="0" cy="-58.5" r="3.4" fill="#ff8fa3"></circle><path d="M-6 -57 H-20 M-6 -54 L-19 -51 M6 -57 H20 M6 -54 L19 -51" stroke="#8a8494" stroke-width="1.2" fill="none" stroke-linecap="round" stroke-linejoin="round"></path><ellipse cx="0" cy="-88" rx="18" ry="6" fill="#ffffff"></ellipse><circle cx="-9" cy="-96" r="9" fill="#ffffff"></circle><circle cx="3" cy="-99" r="10" fill="#ffffff"></circle><circle cx="12" cy="-94" r="8" fill="#ffffff"></circle></g><g transform="translate(350 372) scale(-0.9 1)"><ellipse cx="0" cy="0" rx="28" ry="5.3" fill="#2f6b1a" opacity="0.2"></ellipse><ellipse cx="-11" cy="-4" rx="11" ry="5.5" fill="#f5a3b5"></ellipse><ellipse cx="11" cy="-4" rx="11" ry="5.5" fill="#f5a3b5"></ellipse><ellipse cx="0" cy="-26" rx="21" ry="24" fill="#6b5a55"></ellipse><ellipse cx="0" cy="-21" rx="12" ry="14.4" fill="#8a7670"></ellipse><ellipse cx="-18.5" cy="-28.5" rx="6" ry="12" fill="#5e4e49" transform="rotate(17 -18.5 -28.5)"></ellipse><circle cx="-22" cy="-17" r="7" fill="#f5a3b5"></circle><ellipse cx="18.5" cy="-28.5" rx="6" ry="12" fill="#5e4e49" transform="rotate(-17 18.5 -28.5)"></ellipse><circle cx="22" cy="-17" r="7" fill="#f5a3b5"></circle><circle cx="0" cy="-64" r="24" fill="#6b5a55"></circle><ellipse cx="0" cy="-57" rx="13" ry="9" fill="#8a7670"></ellipse><circle cx="-16" cy="-60" r="4.6" fill="#ffb9c8" opacity="0.8"></circle><circle cx="16" cy="-60" r="4.6" fill="#ffb9c8" opacity="0.8"></circle><path d="M-12.6 -68 Q-9 -73.5 -5.4 -68" stroke="#2b2224" stroke-width="2.5" fill="none" stroke-linecap="round" stroke-linejoin="round"></path><path d="M5.4 -68 Q9 -73.5 12.6 -68" stroke="#2b2224" stroke-width="2.5" fill="none" stroke-linecap="round" stroke-linejoin="round"></path><path d="M-5.5 -53 Q0 -44.3 5.5 -53 Z" fill="#c0475a"></path><circle cx="-9" cy="-69" r="6.5" fill="#dff4ff" opacity="0.6" stroke="#3d3a4a" stroke-width="2"></circle><circle cx="9" cy="-69" r="6.5" fill="#dff4ff" opacity="0.6" stroke="#3d3a4a" stroke-width="2"></circle><path d="M-2.5 -69 H2.5" stroke="#3d3a4a" stroke-width="2" fill="none" stroke-linecap="round" stroke-linejoin="round"></path><ellipse cx="0" cy="-60" rx="6" ry="4.5" fill="#ff8fa3"></ellipse></g><circle cx="50" cy="250" r="5" fill="#fff1b8" opacity="0.4"></circle><circle cx="50" cy="250" r="2.2" fill="#fff1b8"></circle><circle cx="390" cy="240" r="5" fill="#fff1b8" opacity="0.4"></circle><circle cx="390" cy="240" r="2.2" fill="#fff1b8"></circle><circle cx="160" cy="220" r="5" fill="#fff1b8" opacity="0.4"></circle><circle cx="160" cy="220" r="2.2" fill="#fff1b8"></circle></svg>
