<svg xmlns="http://www.w3.org/2000/svg" viewBox="0 0 120 110">
    <ellipse cx="52" cy="16" rx="7" ry="13" fill="#ff6b6b" transform="rotate(-16 52 16)"></ellipse>
    <ellipse cx="67" cy="17" rx="6" ry="11" fill="#ffd43b" transform="rotate(18 67 17)"></ellipse>
    <circle cx="60" cy="64" r="40" fill="#2fb8c6"></circle>
    <ellipse cx="48" cy="103" rx="6.5" ry="4.5" fill="#ffb100"></ellipse>
    <ellipse cx="72" cy="103" rx="6.5" ry="4.5" fill="#ffb100"></ellipse>
    <ellipse cx="60" cy="88" rx="20" ry="15" fill="#bfeef3"></ellipse>
    <ellipse cx="48" cy="56" rx="7" ry="8.5" fill="#fff"></ellipse><circle cx="49" cy="58.5" r="3.5" fill="#2b2a4a"></circle>
    <ellipse cx="72" cy="56" rx="7" ry="8.5" fill="#fff"></ellipse><circle cx="71" cy="58.5" r="3.5" fill="#2b2a4a"></circle>
    <path d="M52 68c0-6 16-6 16 0 0 6.5-4 9.5-8 9.5s-8-3-8-9.5Z" fill="#ffb100"></path>
    <path d="M52 68c0-3 16-3 16 0Z" fill="#f0a800"></path>
    <circle cx="36" cy="70" r="4.5" fill="#ff9d9d" opacity=".75"></circle>
    <circle cx="84" cy="70" r="4.5" fill="#ff9d9d" opacity=".75"></circle>
    <path d="M60 68 64 78.5 75.2 79.1 66.5 86.1 69.4 96.9 60 90.8 50.6 96.9 53.5 86.1 44.8 79.1 56 78.5Z" fill="#ffd21c" stroke="#ffd21c" stroke-width="5" stroke-linejoin="round"></path>
    <ellipse cx="36" cy="86" rx="7.5" ry="14" fill="#22909e" transform="rotate(-38 36 86)"></ellipse>
    <ellipse cx="84" cy="86" rx="7.5" ry="14" fill="#22909e" transform="rotate(38 84 86)"></ellipse>
  </svg>