<svg xmlns="http://www.w3.org/2000/svg" viewBox="0 0 440 400" width="440" height="400"><rect x="0" y="0" width="440" height="400" rx="0" fill="#4aa9dc"></rect><rect x="0" y="0" width="440" height="100" rx="0" fill="#6cc0ea"></rect><rect x="0" y="100" width="440" height="90" rx="0" fill="#5bb5e3"></rect><path d="M0 30 q40 -14 80 0 t80 0 t80 0 t80 0 t80 0 t80 0" stroke="#9ad8f2" stroke-width="3" fill="none" stroke-linecap="round" stroke-linejoin="round" opacity="0.6"></path><path d="M0 330 Q 110 310 220 328 Q 330 346 440 324 L440 400 L0 400 Z" fill="#f0d9a8"></path><circle cx="80" cy="360" r="3" fill="#e6c68c"></circle><circle cx="260" cy="370" r="3" fill="#e6c68c"></circle><circle cx="380" cy="354" r="3" fill="#e6c68c"></circle><g transform="translate(410 370) scale(1.1 1.1)"><path d="M0 0 q-10 -20 0 -40 q10 -20 0 -40 q-8 -14 0 -28" stroke="#3fae6a" stroke-width="7" fill="none" stroke-linecap="round" stroke-linejoin="round"></path><path d="M14 0 q-8 -16 0 -32 q8 -14 2 -26" stroke="#3fae6a" stroke-width="6" fill="none" stroke-linecap="round" stroke-linejoin="round"></path></g><g transform="translate(160 230) scale(1.6 1.6)"><path d="M-26 0 L-44 -16 L-40 0 L-44 16 Z" fill="#ffb100"></path><path d="M-6 -16 Q4 -30 14 -16 Z" fill="#ffb100"></path><path d="M-4 16 Q4 26 10 16 Z" fill="#ffb100"></path><ellipse cx="0" cy="0" rx="30" ry="19" fill="#ff8a3d"></ellipse><path d="M-10 -18 Q-2 0 -10 18 Q-16 0 -10 -18 Z" fill="#ffffff"></path><path d="M8 -18 Q14 0 8 18 Q4 0 8 -18 Z" fill="#ffffff" opacity="0.9"></path><circle cx="16" cy="-5" r="6.5" fill="#ffffff"></circle><circle cx="17" cy="-5" r="3.2" fill="#4a2c14"></circle><circle cx="18" cy="-6.5" r="1.1" fill="#ffffff"></circle><circle cx="20" cy="5" r="3.5" fill="#ffb9c8" opacity="0.8"></circle><path d="M23 5 Q27 9 30 4" stroke="#4a2c14" stroke-width="1.6" fill="none" stroke-linecap="round" stroke-linejoin="round"></path></g><g transform="translate(270 260) rotate(20) scale(1.1)"><g transform="rotate(-25 0 0)"><path d="M0 -70 Q18 -50 10 -14 Q6 -4 0 0 Q-6 -4 -10 -14 Q-18 -50 0 -70 Z" fill="#ffffff"></path><path d="M0 -66 Q2 -30 0 6" stroke="#c3cdd8" stroke-width="2" fill="none" stroke-linecap="round" stroke-linejoin="round"></path><path d="M0 -50 l8 -6 M0 -36 l9 -6 M0 -50 l-8 -6 M0 -36 l-9 -6 M0 -22 l8 -5" stroke="#e3e8ee" stroke-width="1.5" fill="none" stroke-linecap="round" stroke-linejoin="round"></path></g></g><rect x="215" y="84" width="70" height="52" rx="26" fill="#ffffff"></rect><path d="M236 134 l-14 16 l2 -18 Z" fill="#ffffff"></path><g transform="translate(250 116) scale(1 1)"><path d="M-8 -12 Q-8 -22 0 -22 Q8 -22 8 -14 Q8 -8 1 -5 L1 2" stroke="#e0601a" stroke-width="4.5" fill="none" stroke-linecap="round" stroke-linejoin="round"></path><circle cx="1" cy="11" r="3" fill="#e0601a"></circle></g></svg>
