<svg xmlns="http://www.w3.org/2000/svg" viewBox="0 0 440 440" width="440" height="440"><rect x="0" y="0" width="440" height="440" rx="0" fill="#4aa9dc"></rect><rect x="0" y="0" width="440" height="100" rx="0" fill="#6cc0ea"></rect><rect x="0" y="100" width="440" height="90" rx="0" fill="#5bb5e3"></rect><path d="M0 30 q40 -14 80 0 t80 0 t80 0 t80 0 t80 0 t80 0" stroke="#9ad8f2" stroke-width="3" fill="none" stroke-linecap="round" stroke-linejoin="round" opacity="0.6"></path><path d="M0 370 Q 110 350 220 368 Q 330 386 440 364 L440 440 L0 440 Z" fill="#f0d9a8"></path><circle cx="80" cy="400" r="3" fill="#e6c68c"></circle><circle cx="260" cy="410" r="3" fill="#e6c68c"></circle><circle cx="380" cy="394" r="3" fill="#e6c68c"></circle><g transform="translate(40 412) scale(1.2 1.2)"><path d="M0 0 q-10 -20 0 -40 q10 -20 0 -40 q-8 -14 0 -28" stroke="#3fae6a" stroke-width="7" fill="none" stroke-linecap="round" stroke-linejoin="round"></path><path d="M14 0 q-8 -16 0 -32 q8 -14 2 -26" stroke="#3fae6a" stroke-width="6" fill="none" stroke-linecap="round" stroke-linejoin="round"></path></g><g transform="translate(404 410) scale(1.1 1.1)"><path d="M0 0 q-10 -20 0 -40 q10 -20 0 -40 q-8 -14 0 -28" stroke="#3fae6a" stroke-width="7" fill="none" stroke-linecap="round" stroke-linejoin="round"></path><path d="M14 0 q-8 -16 0 -32 q8 -14 2 -26" stroke="#3fae6a" stroke-width="6" fill="none" stroke-linecap="round" stroke-linejoin="round"></path></g><g transform="translate(210 220) scale(1.7 1.7)"><path d="M-58 -2 L-80 -24 L-74 -2 L-80 20 Z" fill="#8fa8bd"></path><path d="M-4 -26 Q6 -54 20 -26 Z" fill="#8fa8bd"></path><path d="M-62 0 Q-40 -30 10 -30 Q50 -28 64 0 Q50 26 10 28 Q-40 28 -62 0 Z" fill="#8fa8bd"></path><path d="M-40 8 Q0 26 56 6 Q40 22 8 24 Q-24 22 -40 8 Z" fill="#e8eff5"></path><path d="M4 12 Q16 30 26 18 Z" fill="#7d96ab"></path><circle cx="34" cy="-8" r="6.5" fill="#ffffff"></circle><circle cx="35" cy="-8" r="3.3" fill="#4a2c14"></circle><circle cx="36" cy="-9.5" r="1.1" fill="#ffffff"></circle><circle cx="44" cy="4" r="4.5" fill="#ffb9c8" opacity="0.8"></circle><path d="M40 10 Q50 20 58 8 Z" fill="#c0475a"></path><path d="M44 11 L46 14 L48 11 M50 11 L52 14 L54 10" fill="#ffffff"></path></g><g transform="translate(330 300) scale(1.3 1.3)"><path d="M-14 0 Q-16 -16 0 -20 Q16 -16 14 0 Z" fill="#ffe0f0"></path><path d="M0 -18 V0 M-7 -15 L-4 0 M7 -15 L4 0" stroke="#e59ab8" stroke-width="1.5" fill="none" stroke-linecap="round" stroke-linejoin="round"></path><ellipse cx="0" cy="0" rx="5" ry="2.5" fill="#e59ab8"></ellipse></g><g transform="translate(314.4 271.4) scale(0.6 0.6)"><path d="M0 -9 L2.2 -2.2 L9 0 L2.2 2.2 L0 9 L-2.2 2.2 L-9 0 L-2.2 -2.2 Z" fill="#ffffff"></path></g><g transform="translate(348.2 279.2) scale(0.5 0.5)"><path d="M0 -9 L2.2 -2.2 L9 0 L2.2 2.2 L0 9 L-2.2 2.2 L-9 0 L-2.2 -2.2 Z" fill="#ffffff"></path></g><g transform="translate(100 120) scale(0.8 0.8)"><path d="M0 -9 L2.2 -2.2 L9 0 L2.2 2.2 L0 9 L-2.2 2.2 L-9 0 L-2.2 -2.2 Z" fill="#fff1b8"></path></g><g transform="translate(340 140) scale(0.7 0.7)"><path d="M0 -9 L2.2 -2.2 L9 0 L2.2 2.2 L0 9 L-2.2 2.2 L-9 0 L-2.2 -2.2 Z" fill="#fff1b8"></path></g><g transform="translate(220 90) scale(0.6 0.6)"><path d="M0 -9 L2.2 -2.2 L9 0 L2.2 2.2 L0 9 L-2.2 2.2 L-9 0 L-2.2 -2.2 Z" fill="#fff1b8"></path></g></svg>
