<svg xmlns="http://www.w3.org/2000/svg" viewBox="0 0 440 400" width="440" height="400"><!-- Written by tools/bookart/build.mjs: change the page there and rebuild, not here. --><rect x="0" y="0" width="440" height="400" rx="0" fill="#4aa9dc"></rect><rect x="0" y="0" width="440" height="100" rx="0" fill="#6cc0ea"></rect><rect x="0" y="100" width="440" height="90" rx="0" fill="#5bb5e3"></rect><path d="M0 30 q40 -14 80 0 t80 0 t80 0 t80 0 t80 0 t80 0" stroke="#9ad8f2" stroke-width="3" fill="none" stroke-linecap="round" stroke-linejoin="round" opacity="0.6"></path><path d="M0 330 Q 110 310 220 328 Q 330 346 440 324 L440 400 L0 400 Z" fill="#f0d9a8"></path><circle cx="80" cy="360" r="3" fill="#e6c68c"></circle><circle cx="260" cy="370" r="3" fill="#e6c68c"></circle><circle cx="380" cy="354" r="3" fill="#e6c68c"></circle><path d="M52 0 H122 L64 300 H8 Z" fill="#ffffff" opacity="0.1"></path><path d="M236 0 H282 L250 250 H204 Z" fill="#ffffff" opacity="0.1"></path><path d="M352 0 H412 L396 280 H330 Z" fill="#ffffff" opacity="0.1"></path><path d="M0 336 Q30 300 70 322 Q100 292 150 318 Q170 312 184 330 L184 346 L0 346 Z" fill="#3e93c4" opacity="0.5"></path><path d="M292 330 Q330 298 372 318 Q404 296 440 318 L440 344 L292 344 Z" fill="#3e93c4" opacity="0.5"></path><g transform="translate(64 376) scale(1 1)"><path d="M0 0 V-26 M0 -14 l-12 -12 M0 -18 l10 -14 M-12 -26 v-8 M10 -32 v-8" stroke="#ff8fb0" stroke-width="7" fill="none" stroke-linecap="round" stroke-linejoin="round"></path></g><g transform="translate(92 380) scale(0.7 0.7)"><path d="M0 0 V-26 M0 -14 l-12 -12 M0 -18 l10 -14 M-12 -26 v-8 M10 -32 v-8" stroke="#ffb86b" stroke-width="7" fill="none" stroke-linecap="round" stroke-linejoin="round"></path></g><g transform="translate(376 372) scale(0.9 0.9)"><path d="M0 0 V-26 M0 -14 l-12 -12 M0 -18 l10 -14 M-12 -26 v-8 M10 -32 v-8" stroke="#ffb86b" stroke-width="7" fill="none" stroke-linecap="round" stroke-linejoin="round"></path></g><g transform="translate(160 384) scale(0.7 0.7)"><g transform="scale(1)"><ellipse cx="0" cy="-6" rx="11" ry="7" fill="#d8cdb9"></ellipse><ellipse cx="-3" cy="-9" rx="3.5" ry="2" fill="#ffffff" opacity="0.5"></ellipse></g></g><g transform="translate(286 388) scale(0.6 0.6)"><g transform="scale(1)"><ellipse cx="0" cy="-6" rx="11" ry="7" fill="#c9bfae"></ellipse><ellipse cx="-3" cy="-9" rx="3.5" ry="2" fill="#ffffff" opacity="0.5"></ellipse></g></g><g transform="translate(110 110)" opacity="0.8"><g transform="translate(0 0) scale(0.3 0.3)"><path d="M-26 0 L-44 -16 L-40 0 L-44 16 Z" fill="#ffb100"></path><path d="M-6 -16 Q4 -30 14 -16 Z" fill="#ffb100"></path><path d="M-4 16 Q4 26 10 16 Z" fill="#ffb100"></path><ellipse cx="0" cy="0" rx="30" ry="19" fill="#ffd166"></ellipse><path d="M-10 -18 Q-2 0 -10 18 Q-16 0 -10 -18 Z" fill="#ffffff"></path><path d="M8 -18 Q14 0 8 18 Q4 0 8 -18 Z" fill="#ffffff" opacity="0.9"></path><circle cx="16" cy="-5" r="6.5" fill="#ffffff"></circle><circle cx="17" cy="-5" r="3.2" fill="#4a2c14"></circle><circle cx="18" cy="-6.5" r="1.1" fill="#ffffff"></circle><circle cx="20" cy="5" r="3.5" fill="#ffb9c8" opacity="0.8"></circle><path d="M23 5 Q27 9 30 4" stroke="#4a2c14" stroke-width="1.6" fill="none" stroke-linecap="round" stroke-linejoin="round"></path></g><g transform="translate(28 16) scale(0.2 0.2)"><path d="M-26 0 L-44 -16 L-40 0 L-44 16 Z" fill="#ffb100"></path><path d="M-6 -16 Q4 -30 14 -16 Z" fill="#ffb100"></path><path d="M-4 16 Q4 26 10 16 Z" fill="#ffb100"></path><ellipse cx="0" cy="0" rx="30" ry="19" fill="#ffd166"></ellipse><path d="M-10 -18 Q-2 0 -10 18 Q-16 0 -10 -18 Z" fill="#ffffff"></path><path d="M8 -18 Q14 0 8 18 Q4 0 8 -18 Z" fill="#ffffff" opacity="0.9"></path><circle cx="16" cy="-5" r="6.5" fill="#ffffff"></circle><circle cx="17" cy="-5" r="3.2" fill="#4a2c14"></circle><circle cx="18" cy="-6.5" r="1.1" fill="#ffffff"></circle><circle cx="20" cy="5" r="3.5" fill="#ffb9c8" opacity="0.8"></circle><path d="M23 5 Q27 9 30 4" stroke="#4a2c14" stroke-width="1.6" fill="none" stroke-linecap="round" stroke-linejoin="round"></path></g><g transform="translate(-22 20) scale(0.2 0.2)"><path d="M-26 0 L-44 -16 L-40 0 L-44 16 Z" fill="#ffb100"></path><path d="M-6 -16 Q4 -30 14 -16 Z" fill="#ffb100"></path><path d="M-4 16 Q4 26 10 16 Z" fill="#ffb100"></path><ellipse cx="0" cy="0" rx="30" ry="19" fill="#ffd166"></ellipse><path d="M-10 -18 Q-2 0 -10 18 Q-16 0 -10 -18 Z" fill="#ffffff"></path><path d="M8 -18 Q14 0 8 18 Q4 0 8 -18 Z" fill="#ffffff" opacity="0.9"></path><circle cx="16" cy="-5" r="6.5" fill="#ffffff"></circle><circle cx="17" cy="-5" r="3.2" fill="#4a2c14"></circle><circle cx="18" cy="-6.5" r="1.1" fill="#ffffff"></circle><circle cx="20" cy="5" r="3.5" fill="#ffb9c8" opacity="0.8"></circle><path d="M23 5 Q27 9 30 4" stroke="#4a2c14" stroke-width="1.6" fill="none" stroke-linecap="round" stroke-linejoin="round"></path></g></g><g transform="translate(410 370) scale(1.1 1.1)"><path d="M0 0 q-10 -20 0 -40 q10 -20 0 -40 q-8 -14 0 -28" stroke="#3fae6a" stroke-width="7" fill="none" stroke-linecap="round" stroke-linejoin="round"></path><path d="M14 0 q-8 -16 0 -32 q8 -14 2 -26" stroke="#3fae6a" stroke-width="6" fill="none" stroke-linecap="round" stroke-linejoin="round"></path></g><g transform="translate(250 240) scale(1.4 1.4)"><path d="M-58 -2 L-80 -24 L-74 -2 L-80 20 Z" fill="#8fa8bd"></path><path d="M-4 -26 Q6 -54 20 -26 Z" fill="#8fa8bd"></path><path d="M-62 0 Q-40 -30 10 -30 Q50 -28 64 0 Q50 26 10 28 Q-40 28 -62 0 Z" fill="#8fa8bd"></path><path d="M-40 8 Q0 26 56 6 Q40 22 8 24 Q-24 22 -40 8 Z" fill="#e8eff5"></path><path d="M4 12 Q16 30 26 18 Z" fill="#7d96ab"></path><circle cx="34" cy="-8" r="6.5" fill="#ffffff"></circle><circle cx="35" cy="-8" r="3.3" fill="#4a2c14"></circle><circle cx="36" cy="-9.5" r="1.1" fill="#ffffff"></circle><circle cx="44" cy="4" r="4.5" fill="#ffb9c8" opacity="1"></circle><path d="M42 12 Q50 16 56 10" stroke="#4a2c14" stroke-width="1.7" fill="none" stroke-linecap="round" stroke-linejoin="round"></path><path d="M29 -18 l6 -3" stroke="#4a2c14" stroke-width="1.5" fill="none" stroke-linecap="round" stroke-linejoin="round"></path></g><g transform="translate(190 340) scale(3.2 3.2)"><g transform="translate(0 0) scale(1 1)"><path d="M-30 0 Q-28 -26 0 -28 Q30 -28 32 0 Z" fill="#b9b2a8"></path><path d="M-18 -14 Q-4 -24 12 -20" fill="none" stroke="#d6d0c8" stroke-width="5" stroke-linecap="round"></path></g></g></svg>
