<svg xmlns="http://www.w3.org/2000/svg" viewBox="0 0 440 400" width="440" height="400"><rect x="0" y="0" width="440" height="400" rx="0" fill="#4aa9dc"></rect><rect x="0" y="0" width="440" height="100" rx="0" fill="#6cc0ea"></rect><rect x="0" y="100" width="440" height="90" rx="0" fill="#5bb5e3"></rect><path d="M0 30 q40 -14 80 0 t80 0 t80 0 t80 0 t80 0 t80 0" stroke="#9ad8f2" stroke-width="3" fill="none" stroke-linecap="round" stroke-linejoin="round" opacity="0.6"></path><path d="M0 330 Q 110 310 220 328 Q 330 346 440 324 L440 400 L0 400 Z" fill="#f0d9a8"></path><circle cx="80" cy="360" r="3" fill="#e6c68c"></circle><circle cx="260" cy="370" r="3" fill="#e6c68c"></circle><circle cx="380" cy="354" r="3" fill="#e6c68c"></circle><g transform="translate(400 372) scale(1 1)"><path d="M0 0 q-10 -20 0 -40 q10 -20 0 -40 q-8 -14 0 -28" stroke="#3fae6a" stroke-width="7" fill="none" stroke-linecap="round" stroke-linejoin="round"></path><path d="M14 0 q-8 -16 0 -32 q8 -14 2 -26" stroke="#3fae6a" stroke-width="6" fill="none" stroke-linecap="round" stroke-linejoin="round"></path></g><g transform="translate(300 290) scale(1.5 1.5)"><path d="M0 -70 Q16 -70 18 -54 Q20 -40 8 -30 Q18 -18 12 -4 Q6 8 -4 6 Q-12 4 -10 -4 Q-8 -10 -2 -8 Q4 -8 2 -2 Q8 -14 -4 -24 Q-14 -34 -10 -52 Q-8 -68 0 -70 Z" fill="#c49cff"></path><path d="M2 -40 Q10 -36 6 -26" fill="none" stroke="#e5d4ff" stroke-width="5" stroke-linecap="round"></path><path d="M-10 -50 L-18 -46 L-10 -42 L-18 -38 L-10 -34 Z" fill="#ff8fb0"></path><path d="M-6 -70 L-4 -80 L0 -71 L4 -80 L6 -69 Z" fill="#ff8fb0"></path><path d="M12 -62 Q30 -62 32 -56 Q28 -52 14 -54 Z" fill="#c49cff"></path><circle cx="4" cy="-60" r="5.5" fill="#ffffff"></circle><circle cx="5" cy="-60" r="2.8" fill="#4a2c14"></circle><circle cx="6" cy="-61.3" r="1" fill="#ffffff"></circle><circle cx="12" cy="-54" r="3.2" fill="#ffb9c8" opacity="0.8"></circle><path d="M20 -54 Q24 -52 28 -54" stroke="#4a2c14" stroke-width="1.4" fill="none" stroke-linecap="round" stroke-linejoin="round"></path></g><circle cx="270" cy="150" r="5" fill="none" stroke="#dff4ff" stroke-width="2"></circle><circle cx="280" cy="128" r="4" fill="none" stroke="#dff4ff" stroke-width="2"></circle><g transform="translate(110 250) scale(0.9 0.9)"><path d="M-58 -2 L-80 -24 L-74 -2 L-80 20 Z" fill="#8fa8bd"></path><path d="M-4 -26 Q6 -54 20 -26 Z" fill="#8fa8bd"></path><path d="M-62 0 Q-40 -30 10 -30 Q50 -28 64 0 Q50 26 10 28 Q-40 28 -62 0 Z" fill="#8fa8bd"></path><path d="M-40 8 Q0 26 56 6 Q40 22 8 24 Q-24 22 -40 8 Z" fill="#e8eff5"></path><path d="M4 12 Q16 30 26 18 Z" fill="#7d96ab"></path><circle cx="34" cy="-8" r="6.5" fill="#ffffff"></circle><circle cx="37" cy="-8" r="3.3" fill="#4a2c14"></circle><circle cx="36" cy="-9.5" r="1.1" fill="#ffffff"></circle><circle cx="44" cy="4" r="4.5" fill="#ffb9c8" opacity="1"></circle><path d="M42 12 Q50 16 56 10" stroke="#4a2c14" stroke-width="1.7" fill="none" stroke-linecap="round" stroke-linejoin="round"></path><path d="M29 -18 l6 -3" stroke="#4a2c14" stroke-width="1.5" fill="none" stroke-linecap="round" stroke-linejoin="round"></path></g></svg>
